<svg width="35" height="35" viewBox="0 0 35 35" fill="none" xmlns="http://www.w3.org/2000/svg">
<path d="M14.3206 17.9082C13.5673 16.7134 12.9801 15.4215 12.5752 14.0682L15.3505 11.293C15.5141 11.1307 15.6439 10.9377 15.7325 10.725C15.8211 10.5123 15.8668 10.2841 15.8668 10.0537C15.8668 9.82328 15.8211 9.59514 15.7325 9.38244C15.6439 9.16974 15.5141 8.97669 15.3505 8.81443L8.36864 1.83261C8.0416 1.50752 7.59921 1.32505 7.13809 1.32505C6.67697 1.32505 6.23458 1.50752 5.90754 1.83261L1.22973 6.56279C0.898829 6.89168 0.63721 7.28355 0.460331 7.71525C0.283451 8.14696 0.1949 8.60974 0.199908 9.07625C0.350289 15.1945 2.57867 21.0794 6.51845 25.7628L0.723545 31.5053L3.18464 33.9839L34.6028 2.5657L32.1417 0.0871582L14.3206 17.9082ZM8.92718 23.2319C5.6535 19.2149 3.81108 14.2219 3.69082 9.04134L7.18173 5.55043L11.7025 10.0537L9.45082 12.3053C9.24404 12.5121 9.09252 12.7675 9.01018 13.0481C8.92783 13.3287 8.9173 13.6254 8.97955 13.9112C9.50926 16.2382 10.4682 18.4461 11.8072 20.4217L8.92718 23.2319ZM25.8755 19.2872C25.5485 18.9621 25.1061 18.7796 24.645 18.7796C24.1839 18.7796 23.7415 18.9621 23.4145 19.2872L20.6217 22.0799L20.0283 21.8704L17.3054 24.5759C18.4332 25.0609 19.6013 25.4464 20.7963 25.7279C21.0793 25.7871 21.3727 25.775 21.6499 25.6927C21.9272 25.6105 22.1796 25.4606 22.3846 25.2566L24.6537 22.9875L29.157 27.5082L25.6661 30.9992C21.6117 30.8937 17.6518 29.752 14.1635 27.6828L11.6675 30.2137C15.847 32.8816 20.6745 34.36 25.6312 34.4901C26.0935 34.495 26.5523 34.4081 26.9808 34.2343C27.4092 34.0605 27.7989 33.8033 28.1272 33.4777L32.8574 28.7475C33.021 28.5853 33.1508 28.3922 33.2394 28.1795C33.328 27.9668 33.3737 27.7387 33.3737 27.5082C33.3737 27.2778 33.328 27.0497 33.2394 26.837C33.1508 26.6243 33.021 26.4312 32.8574 26.269L25.8755 19.2872Z" fill="#2F3538"/>
</svg>
