<svg width="36" height="36" viewBox="0 0 36 36" fill="none" xmlns="http://www.w3.org/2000/svg">
<path d="M34.128 5.97266C33.8691 5.83672 33.5802 5.76789 33.2878 5.77246C32.9953 5.77704 32.7087 5.85487 32.4542 5.99884C31.2603 6.67782 30.0891 7.00597 28.8707 7.00597C25.3187 7.00597 21.9727 4.16262 18.8832 1.08888C18.2287 0.437822 17.0278 0.437822 16.3733 1.08888C13.4514 4.00029 9.97096 6.97455 6.32645 6.97455C5.12209 6.97455 3.96834 6.65339 2.80412 5.99535C2.28398 5.70561 1.65561 5.69688 1.12849 5.9744C0.601359 6.25193 0.254013 6.77906 0.206886 7.37251C0.187686 7.59768 -1.44082 29.84 17.1081 35.3713C17.27 35.4201 17.4382 35.4448 17.6073 35.4447H17.6544C17.8238 35.4447 17.9896 35.4202 18.1519 35.3731C36.7532 29.84 35.0741 7.59244 35.0549 7.36902C35.03 7.0772 34.932 6.79635 34.77 6.55232C34.6081 6.3083 34.3873 6.10896 34.128 5.97266ZM17.63 31.8787C5.44848 27.9427 3.78158 15.4505 3.64194 10.1007C4.52339 10.345 5.42056 10.4655 6.3247 10.4655C10.6744 10.4655 14.4411 7.73033 17.6283 4.73513C20.9324 7.856 24.5804 10.4969 28.8725 10.4969C29.7976 10.4969 30.7174 10.3677 31.6216 10.1129C31.4924 15.4627 29.8395 27.9462 17.63 31.8787Z" fill="#2F3538"/>
</svg>
