<svg width="36" height="34" viewBox="0 0 36 34" fill="none" xmlns="http://www.w3.org/2000/svg">
<path d="M31.6181 11.0538H21.8226L23.7828 5.17684C24.1354 4.1156 23.9573 2.93916 23.3028 2.03153C22.6482 1.12389 21.587 0.581055 20.4682 0.581055H17.6545C17.1361 0.581055 16.6456 0.811454 16.3122 1.20942L8.10861 11.0538H3.69086C1.76562 11.0538 0.199951 12.6195 0.199951 14.5447V30.2538C0.199951 32.179 1.76562 33.7447 3.69086 33.7447H26.9176C27.6278 33.7423 28.3206 33.5245 28.9043 33.1199C29.4881 32.7154 29.9353 32.1432 30.1869 31.4791L34.9991 18.6483C35.0721 18.4523 35.1094 18.2448 35.109 18.0356V14.5447C35.109 12.6195 33.5434 11.0538 31.6181 11.0538ZM3.69086 14.5447H7.18177V30.2538H3.69086V14.5447ZM31.6181 17.7197L26.9176 30.2538H10.6727V13.4311L18.4714 4.07196H20.4717L17.7453 12.2459C17.6568 12.5083 17.6321 12.788 17.6732 13.0618C17.7144 13.3356 17.8203 13.5957 17.9821 13.8204C18.1438 14.0451 18.3568 14.2281 18.6034 14.354C18.85 14.48 19.1231 14.5453 19.3999 14.5447H31.6181V17.7197Z" fill="#2F3538"/>
</svg>
