<svg width="36" height="32" viewBox="0 0 36 32" fill="none" xmlns="http://www.w3.org/2000/svg">
<path d="M31.6181 0.326416H5.43631C2.54933 0.326416 0.199951 2.6758 0.199951 5.56278V26.5082C0.199951 29.3952 2.54933 31.7446 5.43631 31.7446H31.6181C33.5434 31.7446 35.109 30.1789 35.109 28.2537V3.81733C35.109 1.89209 33.5434 0.326416 31.6181 0.326416ZM5.43631 28.2537C4.47282 28.2537 3.69086 27.47 3.69086 26.5082V5.56278C3.69086 4.60103 4.47282 3.81733 5.43631 3.81733H31.6181V9.05369H21.1454C19.2202 9.05369 17.6545 10.6194 17.6545 12.5446V19.5264C17.6545 21.4517 19.2202 23.0173 21.1454 23.0173H31.6199V28.2537H5.43631ZM31.6181 12.5446V19.5264H21.1454V12.5446H31.6181Z" fill="#2F3538"/>
</svg>
