<svg width="18" height="17" viewBox="0 0 18 17" fill="none" xmlns="http://www.w3.org/2000/svg">
<path d="M9 14.275L4.85 16.775C4.66667 16.8917 4.475 16.9417 4.275 16.925C4.075 16.9083 3.9 16.8417 3.75 16.725C3.6 16.6083 3.48333 16.4627 3.4 16.288C3.31667 16.1127 3.3 15.9167 3.35 15.7L4.45 10.975L0.775 7.8C0.608333 7.65 0.504333 7.479 0.463 7.287C0.421 7.09567 0.433333 6.90833 0.5 6.725C0.566666 6.54167 0.666666 6.39167 0.8 6.275C0.933333 6.15833 1.11667 6.08333 1.35 6.05L6.2 5.625L8.075 1.175C8.15833 0.975001 8.28767 0.825001 8.463 0.725001C8.63767 0.625001 8.81667 0.575001 9 0.575001C9.18333 0.575001 9.36267 0.625001 9.538 0.725001C9.71267 0.825001 9.84167 0.975001 9.925 1.175L11.8 5.625L16.65 6.05C16.8833 6.08333 17.0667 6.15833 17.2 6.275C17.3333 6.39167 17.4333 6.54167 17.5 6.725C17.5667 6.90833 17.5793 7.09567 17.538 7.287C17.496 7.479 17.3917 7.65 17.225 7.8L13.55 10.975L14.65 15.7C14.7 15.9167 14.6833 16.1127 14.6 16.288C14.5167 16.4627 14.4 16.6083 14.25 16.725C14.1 16.8417 13.925 16.9083 13.725 16.925C13.525 16.9417 13.3333 16.8917 13.15 16.775L9 14.275Z" fill="#FFDD66"/>
</svg>
