<svg width="115" height="115" viewBox="0 0 115 115" fill="none" xmlns="http://www.w3.org/2000/svg">
<path d="M76.0057 21.1785H91.0498C91.0498 21.1785 89.7204 18.7451 85.8467 19.1085C82.1492 19.4466 81.957 17.9102 80.0807 17.7285C78.2045 17.5468 76.6326 18.9728 76.0057 21.1785Z" fill="#E0E0E0"/>
<path d="M36.6826 61.1571C36.6826 61.1571 35.1748 61.9759 37.3691 65.1407C39.5633 68.3055 40.9911 69.8235 40.9911 69.8235C40.9911 69.8235 41.4075 70.571 40.7623 70.7849C40.117 70.9988 38.6275 70.9689 38.4445 71.8222C38.2545 72.71 38.9753 73.4322 40.307 73.9497C41.6386 74.4672 44.517 75.7391 44.7756 75.8541C45.0341 75.9691 45.3179 76.3026 44.9014 76.5188C44.485 76.735 41.2565 77.5331 41.7233 79.0488C42.19 80.5645 46.1439 81.4224 46.574 81.5236C47.0042 81.6248 47.1254 81.7858 47.1232 82.0158C47.1209 82.2458 46.0112 82.4114 45.1005 82.6759C44.1898 82.9404 43.1831 83.4096 43.5263 84.2629C43.8695 85.1162 46.3544 86.6641 51.8412 86.4456L54.3764 86.1788L55.4564 83.8443C57.463 78.7084 56.8292 75.8403 56.1428 75.2331C55.4564 74.6259 54.683 75.4309 54.1361 76.2083C53.5893 76.9857 53.0676 77.9839 52.8502 77.9103C52.6329 77.8367 52.523 77.6688 52.5688 77.2203C52.6146 76.7718 53.1111 72.7445 51.8389 71.8015C50.5667 70.8585 48.7546 73.6599 48.4068 73.9842C48.059 74.3085 47.8462 73.9267 47.8233 73.6461C47.8004 73.3655 47.5602 70.2168 47.503 68.777C47.4458 67.3372 47.0133 66.4218 46.1187 66.3114C45.224 66.201 44.7962 67.627 44.382 68.1698C43.9679 68.7126 43.4027 68.0709 43.4027 68.0709C43.4027 68.0709 42.444 66.2171 40.1994 63.0937C37.9548 59.9703 36.6529 61.1801 36.6529 61.1801" fill="#EBEBEB"/>
<path d="M54.5892 86.7607C52.9441 84.4607 50.0908 80.3207 47.622 76.781C45.1531 73.2413 42.9177 70.0397 41.284 67.7305C40.4671 66.5805 39.8082 65.6467 39.3482 65.0004L38.822 64.2552L38.687 64.062C38.6572 64.0183 38.6435 63.993 38.6435 63.993C38.6435 63.993 38.6618 64.0137 38.6939 64.0574L38.8357 64.246L39.3734 64.982C39.831 65.6191 40.5175 66.5483 41.3297 67.6983C42.9749 69.9983 45.2195 73.1953 47.686 76.735C50.1526 80.2747 53.0013 84.4193 54.6349 86.7262" fill="#E0E0E0"/>
<path d="M40.5266 71.951C40.5883 71.9535 40.6496 71.962 40.7097 71.9763C40.8264 71.997 40.9934 72.0315 41.2016 72.0775C41.6157 72.1672 42.1832 72.3075 42.8033 72.4731L44.4049 72.9032L44.89 73.032C44.9506 73.0424 45.0098 73.0601 45.0662 73.0849C45.0045 73.0841 44.9431 73.0764 44.8831 73.0619C44.7664 73.0412 44.5994 73.0067 44.3912 72.9584C43.9793 72.8641 43.4119 72.7284 42.7895 72.5513L41.1879 72.1327L40.7028 72.0062C40.6419 71.9958 40.5826 71.9773 40.5266 71.951Z" fill="#E0E0E0"/>
<path d="M45.2172 72.9101C45.1943 72.9101 45.43 71.7141 45.7412 70.2513C46.0523 68.7885 46.3246 67.604 46.3452 67.6086C46.3658 67.6132 46.1324 68.8023 45.819 70.2674C45.5055 71.7325 45.2378 72.9101 45.2172 72.9101Z" fill="#E0E0E0"/>
<path d="M48.7637 78.506C48.7834 78.4462 48.8103 78.389 48.8438 78.3358L49.0863 77.8758C49.29 77.494 49.5714 76.9558 49.8574 76.367C50.1434 75.7782 50.3905 75.217 50.5621 74.8283L50.7681 74.3568C50.7879 74.2962 50.8164 74.2388 50.8527 74.1866C50.84 74.2487 50.8217 74.3095 50.7978 74.3683C50.7566 74.4833 50.6949 74.6466 50.6148 74.849C50.4546 75.2538 50.2189 75.8058 49.9284 76.4038C49.6378 77.0018 49.3495 77.5262 49.1344 77.9034C49.0246 78.0897 48.933 78.2415 48.869 78.3427C48.8391 78.4004 48.8039 78.455 48.7637 78.506Z" fill="#E0E0E0"/>
<path d="M44.334 78.5888C44.3898 78.5733 44.4477 78.5663 44.5056 78.5681L44.9792 78.5405C45.3774 78.5198 45.9288 78.4991 46.5374 78.4784C47.146 78.4577 47.6975 78.4462 48.0979 78.4416H48.5715C48.6294 78.4365 48.6876 78.4365 48.7454 78.4416C48.6888 78.4572 48.6303 78.4649 48.5715 78.4646L48.1002 78.4922C47.6998 78.5106 47.1483 78.5336 46.5397 78.552C45.9311 78.5704 45.3796 78.5842 44.9792 78.5888H44.5079C44.4501 78.5956 44.3918 78.5956 44.334 78.5888Z" fill="#E0E0E0"/>
<path d="M46.8394 83.9501C46.9146 83.9332 46.9913 83.9248 47.0682 83.9248L47.6746 83.888C48.1848 83.8604 48.8918 83.8259 49.6721 83.7937C50.4523 83.7615 51.1593 83.7385 51.6696 83.7247L52.2759 83.7109C52.3521 83.7048 52.4286 83.7048 52.5047 83.7109C52.4293 83.7256 52.3528 83.734 52.2759 83.7362L51.6696 83.773C51.1593 83.8006 50.4523 83.8351 49.6721 83.8673C48.8918 83.8995 48.1848 83.9225 47.6746 83.9363L47.0682 83.9501C46.9921 83.9564 46.9156 83.9564 46.8394 83.9501Z" fill="#E0E0E0"/>
<path d="M52.3537 83.6741C52.3796 83.5987 52.4117 83.5256 52.4498 83.4556L52.7381 82.8691C52.9807 82.3746 53.3101 81.6915 53.6534 80.9256C53.9966 80.1597 54.294 79.4605 54.5045 78.9499L54.7539 78.3473C54.7813 78.2729 54.8142 78.2006 54.8523 78.1311C54.8365 78.21 54.8127 78.287 54.7814 78.3611C54.731 78.5083 54.6555 78.7176 54.5526 78.9729C54.3558 79.4881 54.0675 80.1942 53.722 80.9601C53.3765 81.726 53.0356 82.4091 52.7816 82.8967C52.6535 83.1405 52.5528 83.3383 52.4704 83.4717C52.4366 83.542 52.3976 83.6097 52.3537 83.6741Z" fill="#E0E0E0"/>
<path d="M73.6306 49.7307C70.9078 46.6602 71.1686 42.2281 72.2006 38.4354C72.3722 37.8006 72.4614 37.1106 72.887 36.623C73.3126 36.1354 74.118 35.9192 74.6237 36.324C75.0424 36.6598 75.1179 37.2601 75.2735 37.7799C75.4803 38.4711 75.8768 39.0897 76.4175 39.5647C76.7722 39.8729 77.2412 40.119 77.6943 39.9948C78.3143 39.82 78.5569 39.0748 78.7033 38.4377C78.9733 37.2524 79.2448 36.0672 79.5179 34.8819C79.631 34.2387 79.8449 33.6177 80.1517 33.0419C80.4903 32.4853 81.0669 32.0299 81.6984 32.0046C82.3299 31.9793 83.0003 32.5037 82.9797 33.1546C82.9419 33.4233 82.8861 33.6892 82.8127 33.9504C82.7783 34.0809 82.7828 34.2186 82.8255 34.3466C82.8682 34.4745 82.9473 34.5871 83.053 34.6703C83.2818 34.806 83.5815 34.6864 83.8149 34.5438C84.618 34.0585 85.2564 33.3386 85.8627 32.6141C86.4691 31.8896 87.0686 31.1467 87.8259 30.5878C88.5833 30.0289 89.5305 29.6678 90.4481 29.8334C91.3656 29.999 92.1961 30.7902 92.2145 31.7355C92.2328 32.6808 91.5006 33.472 90.7638 34.0608C89.6751 34.935 88.4668 35.6469 87.1761 36.1745C86.9322 36.2429 86.7165 36.388 86.5606 36.5885C86.3318 36.9795 86.6224 37.4947 87.0045 37.7385C87.4392 38.0076 87.9609 38.0812 88.4414 38.256C88.9219 38.4308 89.4024 38.7781 89.4779 39.2887C89.5832 39.9994 88.883 40.5514 88.2469 40.8711C86.9731 41.5075 85.6002 41.9198 84.1879 42.0901C83.6822 42.1499 83.1582 42.1844 82.7052 42.4213C82.2521 42.6582 81.8929 43.178 82.0187 43.6794C82.1446 44.1808 82.6869 44.4637 83.1948 44.4867C83.7028 44.5097 84.2016 44.351 84.7072 44.2866C85.6522 44.1624 86.7665 44.489 87.1372 45.3768C87.2473 45.6785 87.286 46.0019 87.2503 46.3212C87.2146 46.6406 87.1053 46.9472 86.9313 47.2168C86.5829 47.7487 86.1315 48.2047 85.6042 48.5577C83.8368 49.8909 81.7492 50.7289 79.5545 50.9865C77.3762 51.2165 75.4634 50.9543 73.6352 49.7422" fill="#F5F5F5"/>
<path d="M74.1843 50.0987C74.6786 48.6175 74.1615 49.3604 75.1797 47.5687C76.3024 45.6347 77.5346 43.7671 78.8703 41.9751C79.2212 41.4967 79.5682 41.0252 79.9114 40.5606C80.2546 40.1006 80.5979 39.6406 80.9548 39.2059C81.6492 38.3839 82.3878 37.6007 83.1674 36.8599C83.9064 36.1469 84.634 35.4983 85.3205 34.8957C86.0069 34.2931 86.6567 33.7457 87.2699 33.2742C88.2353 32.5221 89.2582 31.8476 90.3291 31.2571C90.7066 31.0478 91.0155 30.896 91.21 30.7971L91.4388 30.6844L91.5189 30.6499C91.4953 30.6677 91.47 30.6831 91.4434 30.6959L91.2146 30.8201C91.0132 30.9282 90.7181 31.0869 90.3451 31.3008C89.287 31.9065 88.2758 32.5915 87.3202 33.3501C86.7116 33.8262 86.0664 34.3759 85.3845 34.9785C84.7027 35.5811 83.9796 36.2343 83.2429 36.9473C82.469 37.6879 81.735 38.4695 81.044 39.2887C80.6871 39.7165 80.3576 40.1742 80.0075 40.6388L78.9664 42.0533C77.6352 43.8392 76.4039 45.6982 75.2781 47.6216C74.2576 49.4087 74.7701 48.6543 74.2667 50.1263" fill="#E0E0E0"/>
<path d="M80.9983 39.2105C80.9889 39.1156 80.9889 39.0201 80.9983 38.9253C80.9983 38.7413 81.028 38.4653 81.0577 38.1502C81.1172 37.4947 81.2316 36.5954 81.3598 35.6041C81.4879 34.6128 81.5886 33.7135 81.6366 33.0603C81.6618 32.7337 81.6801 32.4715 81.6915 32.2875C81.6907 32.1923 81.7007 32.0974 81.7213 32.0046C81.7363 32.0988 81.7417 32.1944 81.7373 32.2898C81.7373 32.4715 81.7373 32.7498 81.7213 33.0649C81.6938 33.7227 81.6069 34.6266 81.4765 35.6202C81.346 36.6138 81.2316 37.4832 81.1424 38.1502C81.1035 38.4561 81.0715 38.7137 81.0463 38.9207C81.041 39.0188 81.0249 39.116 80.9983 39.2105Z" fill="#E0E0E0"/>
<path d="M89.4642 39.6176C89.3526 39.6169 89.2414 39.6045 89.1324 39.5808C88.9196 39.5486 88.6107 39.5026 88.2286 39.4566C87.4667 39.36 86.3981 39.2657 85.2358 39.2105C84.0734 39.1553 83.0003 39.1553 82.2293 39.176C81.8449 39.176 81.5428 39.199 81.314 39.2082C81.2021 39.2177 81.0896 39.2177 80.9777 39.2082C81.0872 39.1809 81.1991 39.164 81.3117 39.1576C81.5268 39.1346 81.838 39.107 82.227 39.0886C82.998 39.0449 84.0574 39.0334 85.2427 39.0886C86.2466 39.1323 87.2478 39.2267 88.2423 39.3715C88.6222 39.429 88.9288 39.4888 89.1416 39.5325C89.2516 39.5504 89.3596 39.5789 89.4642 39.6176Z" fill="#E0E0E0"/>
<path d="M75.3147 47.4399C75.2979 47.4044 75.2871 47.3663 75.2826 47.3272C75.2643 47.2375 75.2414 47.1294 75.2117 46.9983C75.1545 46.7131 75.079 46.3083 74.9943 45.7839C74.8227 44.7558 74.6305 43.3275 74.4383 41.7474C74.2461 40.1673 74.0676 38.739 73.9189 37.7086C73.8457 37.2072 73.7839 36.7886 73.7382 36.4896C73.7199 36.3562 73.7038 36.2458 73.6901 36.1561C73.6865 36.1171 73.6865 36.0778 73.6901 36.0388C73.7066 36.0746 73.7182 36.1126 73.7244 36.1515L73.7931 36.4804C73.8526 36.7656 73.9258 37.1704 74.0104 37.6948C74.1821 38.7229 74.3743 40.1512 74.5665 41.7313C74.7587 43.3114 74.9371 44.7397 75.0858 45.7701C75.1614 46.2715 75.2208 46.6901 75.2666 46.9914C75.2872 47.1225 75.3009 47.2329 75.3147 47.3226C75.3196 47.3616 75.3196 47.401 75.3147 47.4399Z" fill="#E0E0E0"/>
<path d="M86.9313 46.513C86.8935 46.5251 86.8542 46.5313 86.8146 46.5314L86.4759 46.5636L85.2312 46.6648C84.181 46.7499 82.7303 46.8948 81.1287 47.0374C79.527 47.18 78.0718 47.3111 77.0101 47.3755C76.4839 47.4077 76.0583 47.4284 75.7631 47.4376H75.4245C75.385 47.4435 75.3449 47.4435 75.3055 47.4376C75.3435 47.4265 75.3827 47.4204 75.4222 47.4192L75.7608 47.387L77.0055 47.2858C78.0558 47.2007 79.5064 47.0558 81.1081 46.9132C82.7098 46.7706 84.1627 46.6395 85.2266 46.5774C85.7552 46.5452 86.1808 46.5222 86.4759 46.513H86.8146C86.8533 46.5082 86.8925 46.5082 86.9313 46.513Z" fill="#E0E0E0"/>
<path d="M95.9417 69.9201C95.9337 69.9574 95.9214 69.9937 95.9051 70.0282L95.7793 70.3341C95.6626 70.6101 95.4979 70.9988 95.2919 71.4841L93.5278 75.585L93.5164 75.608H93.4912L87.9495 76.528L86.0915 76.8339L86.0069 76.8477L86.0275 76.7649C86.4851 74.9732 86.8947 73.3149 87.2493 71.9234L87.2745 71.9763L84.0185 70.5135L83.1193 70.1018L82.8905 69.9914C82.8631 69.9797 82.837 69.9651 82.8127 69.9477L82.8951 69.9776L83.1353 70.0765L84.0506 70.4652L87.3225 71.8912L87.3591 71.9073V71.9441C87.0113 73.3471 86.6018 74.9985 86.1579 76.7925L86.0938 76.7235L87.9518 76.4153L93.4958 75.5091L93.4569 75.539L95.2576 71.4565C95.475 70.9689 95.6489 70.5825 95.7724 70.3065L95.9097 70.0052C95.9187 69.9762 95.9294 69.9478 95.9417 69.9201Z" fill="#E0E0E0"/>
<path d="M86.7414 76.1876L86.5881 76.5878L86.8306 76.942L86.405 76.9213L86.1465 77.2617L86.0343 76.8477L85.6316 76.7051L85.9886 76.4705L86 76.0427L86.3318 76.3118L86.7414 76.1876Z" fill="#E0E0E0"/>
<path d="M82.9363 69.6901L82.8608 69.8902L82.9797 70.065L82.7692 70.0535L82.6411 70.2237L82.5839 70.019L82.3848 69.9477L82.561 69.8304L82.5679 69.6165L82.7326 69.7499L82.9363 69.6901Z" fill="#E0E0E0"/>
<path d="M93.6834 75.3389L93.6079 75.539L93.7269 75.7138L93.5164 75.7046L93.3882 75.8748L93.331 75.6678L93.132 75.5988L93.3082 75.4815L93.3127 75.2676L93.4798 75.401L93.6834 75.3389Z" fill="#E0E0E0"/>
<path d="M87.4804 71.7532L87.4049 71.951L87.5262 72.1281L87.3134 72.1166L87.1852 72.2868L87.1303 72.0798L86.929 72.0108L87.1074 71.8935L87.112 71.6796L87.2768 71.813L87.4804 71.7532Z" fill="#E0E0E0"/>
<path d="M96.2003 69.72L96.1248 69.9201L96.2461 70.0949L96.0333 70.0857L95.9051 70.2559L95.8502 70.0489L95.6489 69.9776L95.8273 69.8626L95.8319 69.6487L95.9966 69.7821L96.2003 69.72Z" fill="#E0E0E0"/>
<path d="M26.8484 86.4594H38.8288C38.8288 86.4594 37.7695 84.5205 34.6851 84.8034C31.7404 85.0725 31.5916 83.8489 30.0929 83.6994C28.5942 83.5499 27.3495 84.7022 26.8484 86.4594Z" fill="#E0E0E0"/>
<path d="M29.228 39.0518H41.2062C41.2062 39.0518 40.1468 37.1152 37.0624 37.3958C34.12 37.6672 33.969 36.4436 32.4726 36.2941C30.9761 36.1446 29.7268 37.2969 29.228 39.0518Z" fill="#F5F5F5"/>
<path d="M90.0637 47.4261H99.9024C99.9024 47.4261 99.0329 45.8345 96.5 46.0645C94.0792 46.2945 93.9557 45.2825 92.727 45.1583C91.4983 45.0341 90.4732 45.984 90.0637 47.4261Z" fill="#F5F5F5"/>
<path d="M70.4113 66.9509C70.9009 63.2456 68.3085 60.1866 65.0686 58.3489C61.8287 56.5112 58.0694 55.8902 54.4908 54.8736C51.1159 53.9099 47.7592 52.5023 45.2607 50.0275C42.7621 47.5527 41.2611 43.8336 42.158 40.425C42.3868 39.5694 42.7872 38.7092 43.5194 38.2147C44.2516 37.7202 45.3659 37.734 45.9128 38.4286C47.0751 39.9098 44.8099 42.5686 46.2285 43.7968C46.5534 44.082 47.0019 44.1855 47.3382 44.4546C48.2329 45.1745 47.9446 46.5706 48.0704 47.716C48.3198 49.9815 50.434 51.5547 52.5093 52.4724C55.2893 53.7006 58.3005 54.2779 61.2475 55.0024C64.1946 55.7269 67.1714 56.6492 69.6265 58.4524C72.0816 60.2556 74.2164 63.0524 74.2026 66.1091C74.2026 66.9624 74.0905 68.0112 73.5574 68.6736C73.0243 69.336 72.347 69.4763 71.5782 69.1129C70.8094 68.7495 70.274 68.1929 70.4159 66.9555" fill="#FF725E"/>
<g opacity="0.8">
<path d="M70.4113 66.9509C70.9009 63.2456 68.3085 60.1866 65.0686 58.3489C61.8287 56.5112 58.0694 55.8902 54.4908 54.8736C51.1159 53.9099 47.7592 52.5023 45.2607 50.0275C42.7621 47.5527 41.2611 43.8336 42.158 40.425C42.3868 39.5694 42.7872 38.7092 43.5194 38.2147C44.2516 37.7202 45.3659 37.734 45.9128 38.4286C47.0751 39.9098 44.8099 42.5686 46.2285 43.7968C46.5534 44.082 47.0019 44.1855 47.3382 44.4546C48.2329 45.1745 47.9446 46.5706 48.0704 47.716C48.3198 49.9815 50.434 51.5547 52.5093 52.4724C55.2893 53.7006 58.3005 54.2779 61.2475 55.0024C64.1946 55.7269 67.1714 56.6492 69.6265 58.4524C72.0816 60.2556 74.2164 63.0524 74.2026 66.1091C74.2026 66.9624 74.0905 68.0112 73.5574 68.6736C73.0243 69.336 72.347 69.4763 71.5782 69.1129C70.8094 68.7495 70.274 68.1929 70.4159 66.9555" fill="white"/>
</g>
<path d="M54.7379 37.4901C54.6212 36.1101 55.6394 34.921 56.7972 34.2816C57.955 33.6422 59.282 33.38 60.4741 32.8119C63.4372 31.3997 65.3203 28.0762 65.4599 24.6699C65.5994 21.2636 64.1282 17.855 61.831 15.3526C60.8951 14.336 59.7465 13.2688 59.7328 11.8819C59.7191 10.4329 61.1056 9.29212 62.5105 9.31052C63.9154 9.32892 65.1922 10.2696 66.0273 11.4495C66.8625 12.6294 67.3224 14.0301 67.7731 15.4101C67.4528 14.8305 68.1095 14.1152 68.7456 14.1773C69.3816 14.2394 69.8896 14.7707 70.2717 15.2997C71.9645 17.61 72.7764 20.4542 72.5598 23.3152C72.3305 26.1229 71.0656 28.7431 69.0133 30.6614C66.7549 32.7314 63.769 33.6997 60.8723 34.6197L54.8294 36.5356" fill="#FF725E"/>
<g opacity="0.8">
<path d="M54.7379 37.4901C54.6212 36.1101 55.6394 34.921 56.7972 34.2816C57.955 33.6422 59.282 33.38 60.4741 32.8119C63.4372 31.3997 65.3203 28.0762 65.4599 24.6699C65.5994 21.2636 64.1282 17.855 61.831 15.3526C60.8951 14.336 59.7465 13.2688 59.7328 11.8819C59.7191 10.4329 61.1056 9.29212 62.5105 9.31052C63.9154 9.32892 65.1922 10.2696 66.0273 11.4495C66.8625 12.6294 67.3224 14.0301 67.7731 15.4101C67.4528 14.8305 68.1095 14.1152 68.7456 14.1773C69.3816 14.2394 69.8896 14.7707 70.2717 15.2997C71.9645 17.61 72.7764 20.4542 72.5598 23.3152C72.3305 26.1229 71.0656 28.7431 69.0133 30.6614C66.7549 32.7314 63.769 33.6997 60.8723 34.6197L54.8294 36.5356" fill="white"/>
</g>
<path d="M53.0562 8.62974C52.7497 8.75682 52.504 8.99794 52.3701 9.30278C52.2363 9.60762 52.2248 9.95264 52.3379 10.2658C52.451 10.579 52.6801 10.8362 52.9774 10.9837C53.2746 11.1312 53.617 11.1576 53.9332 11.0575C54.2493 10.9573 54.5148 10.7383 54.6741 10.4461C54.8335 10.1539 54.8745 9.81116 54.7885 9.48935C54.7025 9.16755 54.4962 8.89156 54.2126 8.71896C53.9291 8.54637 53.5902 8.49051 53.2667 8.56304" fill="#FF725E"/>
<g opacity="0.8">
<path d="M53.0562 8.62974C52.7497 8.75682 52.504 8.99794 52.3701 9.30278C52.2363 9.60762 52.2248 9.95264 52.3379 10.2658C52.451 10.579 52.6801 10.8362 52.9774 10.9837C53.2746 11.1312 53.617 11.1576 53.9332 11.0575C54.2493 10.9573 54.5148 10.7383 54.6741 10.4461C54.8335 10.1539 54.8745 9.81116 54.7885 9.48935C54.7025 9.16755 54.4962 8.89156 54.2126 8.71896C53.9291 8.54637 53.5902 8.49051 53.2667 8.56304" fill="white"/>
</g>
<path d="M60.5085 97.2534C59.7671 95.7101 60.4147 93.785 61.5953 92.5476C62.776 91.3102 64.3868 90.6041 65.9427 89.9141C69.3885 88.3869 73.0357 86.5698 74.7861 83.221C75.3764 82.0917 75.7128 80.8498 76.0446 79.617C76.6875 77.2341 77.2916 74.527 75.9988 72.4271C75.6258 71.8222 75.0676 71.2771 74.372 71.1621C73.578 71.0195 72.7703 71.4588 72.2761 72.1005C71.8179 72.7711 71.5425 73.5506 71.4775 74.3614C71.2853 75.8863 71.4455 77.4388 71.2853 78.9614C71.1252 80.484 70.5737 82.1101 69.329 82.9795C67.8029 84.049 65.6269 83.8098 64.1465 84.9391C62.9499 85.8591 62.4945 87.4323 61.561 88.6192C60.7739 89.6104 59.6733 90.2867 58.6666 91.0503C57.6598 91.8139 56.6851 92.7431 56.3419 93.9644C56.1618 94.6028 56.1687 95.2798 56.3617 95.9144C56.5548 96.5489 56.9258 97.114 57.4302 97.542C57.9347 97.97 58.5513 98.2426 59.206 98.3273C59.8607 98.4119 60.5259 98.305 61.1217 98.0193" fill="#FF725E"/>
<g opacity="0.8">
<path d="M60.5085 97.2534C59.7671 95.7101 60.4147 93.785 61.5953 92.5476C62.776 91.3102 64.3868 90.6041 65.9427 89.9141C69.3885 88.3869 73.0357 86.5698 74.7861 83.221C75.3764 82.0917 75.7128 80.8498 76.0446 79.617C76.6875 77.2341 77.2916 74.527 75.9988 72.4271C75.6258 71.8222 75.0676 71.2771 74.372 71.1621C73.578 71.0195 72.7703 71.4588 72.2761 72.1005C71.8179 72.7711 71.5425 73.5506 71.4775 74.3614C71.2853 75.8863 71.4455 77.4388 71.2853 78.9614C71.1252 80.484 70.5737 82.1101 69.329 82.9795C67.8029 84.049 65.6269 83.8098 64.1465 84.9391C62.9499 85.8591 62.4945 87.4323 61.561 88.6192C60.7739 89.6104 59.6733 90.2867 58.6666 91.0503C57.6598 91.8139 56.6851 92.7431 56.3419 93.9644C56.1618 94.6028 56.1687 95.2798 56.3617 95.9144C56.5548 96.5489 56.9258 97.114 57.4302 97.542C57.9347 97.97 58.5513 98.2426 59.206 98.3273C59.8607 98.4119 60.5259 98.305 61.1217 98.0193" fill="white"/>
</g>
<path d="M37.6001 19.2879C36.9909 18.8332 36.4984 18.239 36.1634 17.5547C35.8284 16.8703 35.6607 16.1154 35.6741 15.3528C35.6875 14.5902 35.8817 13.8418 36.2406 13.1697C36.5994 12.4977 37.1126 11.9214 37.7374 11.4886C38.4422 11.0033 39.275 10.7043 39.902 10.1086C40.458 9.58883 40.8172 8.86893 41.4418 8.43193C41.8317 8.15404 42.2996 8.00862 42.7775 8.01687C43.2553 8.02513 43.718 8.18662 44.0981 8.4778C44.4782 8.76899 44.7558 9.17463 44.8904 9.63556C45.0251 10.0965 45.0097 10.5886 44.8465 11.0401C44.5605 11.8474 43.8398 12.4385 43.5377 13.2389C43.2128 14.1037 43.4233 15.0789 43.3089 15.9851C43.234 16.5493 43.0338 17.0893 42.723 17.5651C42.4122 18.041 41.9989 18.4403 41.5137 18.7337C41.0284 19.0271 40.4837 19.2069 39.9199 19.2598C39.3561 19.3128 38.7877 19.2375 38.2568 19.0395" fill="#FF725E"/>
<g opacity="0.8">
<path d="M37.6001 19.2879C36.9909 18.8332 36.4984 18.239 36.1634 17.5547C35.8284 16.8703 35.6607 16.1154 35.6741 15.3528C35.6875 14.5902 35.8817 13.8418 36.2406 13.1697C36.5994 12.4977 37.1126 11.9214 37.7374 11.4886C38.4422 11.0033 39.275 10.7043 39.902 10.1086C40.458 9.58883 40.8172 8.86893 41.4418 8.43193C41.8317 8.15404 42.2996 8.00862 42.7775 8.01687C43.2553 8.02513 43.718 8.18662 44.0981 8.4778C44.4782 8.76899 44.7558 9.17463 44.8904 9.63556C45.0251 10.0965 45.0097 10.5886 44.8465 11.0401C44.5605 11.8474 43.8398 12.4385 43.5377 13.2389C43.2128 14.1037 43.4233 15.0789 43.3089 15.9851C43.234 16.5493 43.0338 17.0893 42.723 17.5651C42.4122 18.041 41.9989 18.4403 41.5137 18.7337C41.0284 19.0271 40.4837 19.2069 39.9199 19.2598C39.3561 19.3128 38.7877 19.2375 38.2568 19.0395" fill="white"/>
</g>
<path d="M49.5645 53.6591L55.3191 52.8012L52.5734 48.8912L51.0999 48.9786C50.6129 49.0068 50.1434 49.1706 49.7437 49.4517C49.3441 49.7328 49.0301 50.12 48.8369 50.5702C48.628 51.0585 48.5698 51.5986 48.6699 52.1204L49.5645 53.6591Z" fill="#FF725E"/>
<path opacity="0.4" d="M49.5645 53.6591L55.3191 52.8012L52.5734 48.8912L51.0999 48.9786C50.6129 49.0068 50.1434 49.1706 49.7437 49.4517C49.3441 49.7328 49.0301 50.12 48.8369 50.5702C48.628 51.0585 48.5698 51.5986 48.6699 52.1204L49.5645 53.6591Z" fill="black"/>
<path d="M74.2804 60.0669C74.3399 60.2325 74.404 60.428 74.4704 60.6626C74.5251 60.8647 74.546 61.0746 74.5321 61.2836C74.5231 61.5429 74.4792 61.7998 74.4017 62.0472C74.3079 62.2772 74.5276 62.4888 74.7129 62.3784C74.8982 62.268 75.1705 61.67 75.1705 60.9018C75.1705 60.1336 75.9347 61.0536 76.2253 61.3848C76.5159 61.716 77.4632 62.6981 77.6348 62.6889C77.8865 62.6751 77.9185 62.4014 77.621 62.0771C77.3236 61.7528 76.4976 60.7201 76.6784 60.5729C76.8591 60.4257 78.3143 62.1346 78.3143 62.1346C78.3143 62.1346 78.566 62.5509 78.7719 62.3899C79.1609 62.0978 77.4792 60.3981 77.3144 60.2417C77.2023 60.1313 77.3922 59.9657 77.5089 60.0899C77.6256 60.2141 78.923 61.8264 79.3211 61.532C79.6254 61.302 77.9482 60.1221 77.8659 59.6391C77.7835 59.1561 79.0465 60.6672 79.328 60.4418C79.4355 60.3567 79.5019 60.2785 78.6415 59.5218C78.2297 59.1492 76.6601 58.0452 76.6601 58.0452L71.9374 44.4545L68.2902 46.5544L74.2804 60.0669Z" fill="#FFBE9D"/>
<path d="M46.1667 34.3621L40.8904 28.0325C40.8239 27.8141 40.7373 27.6023 40.6319 27.4C40.5095 27.1475 40.3353 26.9239 40.1207 26.7439C39.9062 26.5639 39.6562 26.4317 39.3871 26.3558C39.0531 26.2822 38.6687 26.319 38.4056 26.0982C38.2889 25.9993 38.2111 25.8682 38.0875 25.767C37.964 25.6658 37.7603 25.6566 37.6802 25.7877C37.6597 25.8388 37.651 25.8941 37.655 25.9491C37.659 26.0041 37.6754 26.0575 37.7031 26.1051C37.9013 26.5734 38.2166 26.9823 38.6183 27.2919C38.1241 27.4437 37.4171 27.6737 37.4171 27.6737C37.4171 27.6737 36.3028 26.457 35.7308 26.4593C35.1588 26.4616 36.1884 27.5472 36.1884 27.5472C36.1884 27.5472 35.2732 26.6962 34.9894 26.9354C34.7057 27.1746 35.4333 27.8071 35.4333 27.8071C35.2148 27.6577 34.9537 27.5843 34.6897 27.5978C34.4312 27.6415 34.2092 27.9474 34.3488 28.1705C34.4083 28.2509 34.487 28.315 34.5776 28.3568L35.9825 29.1434C36.2073 29.294 36.4645 29.3887 36.733 29.4194C37.4468 29.4424 37.9891 28.9985 38.7007 29.0169C38.7007 29.0169 42.6797 37.4372 43.0824 37.8719C43.4851 38.3066 52.2347 38.8977 52.2347 38.8977L57.2937 34.5162L46.1667 34.3621Z" fill="#FFBE9D"/>
<path d="M62.0186 80.231L67.407 82.5885L64.524 89.3436C63.8971 89.0285 64.103 84.9736 64.103 84.9736L60.5885 83.6051L62.0186 80.231Z" fill="#FF725E"/>
<g opacity="0.6">
<path d="M64.7002 82.7633C64.7476 82.7064 64.8142 82.6691 64.8872 82.6585C64.9603 82.6479 65.0346 82.6647 65.0961 82.7058C65.1537 82.7517 65.1917 82.8179 65.2023 82.891C65.213 82.9641 65.1954 83.0386 65.1533 83.0991C65.1033 83.1588 65.033 83.1978 64.9561 83.2084C64.8791 83.219 64.801 83.2006 64.7368 83.1566C64.6808 83.1029 64.6478 83.0295 64.6448 82.9517C64.6418 82.874 64.6691 82.7982 64.7208 82.7403" fill="white"/>
</g>
<path opacity="0.6" d="M67.407 82.5885L66.8533 82.3723L64.2952 88.9296C64.2952 88.9296 64.2952 89.2884 64.5241 89.3436L67.407 82.5885Z" fill="white"/>
<path d="M64.0184 85.0725C64.0527 85.084 64.1374 84.9253 64.3135 84.8103C64.4897 84.6953 64.6613 84.6654 64.6613 84.6309C64.6613 84.5964 64.4508 84.5619 64.2426 84.7068C64.0344 84.8517 63.9863 85.0656 64.0184 85.0725Z" fill="#263238"/>
<path d="M64.0069 85.9051C64.0367 85.9281 64.1534 85.8085 64.341 85.7556C64.5286 85.7027 64.6865 85.7349 64.7002 85.7027C64.714 85.6705 64.5355 85.567 64.3044 85.636C64.0733 85.705 63.9772 85.8913 64.0069 85.9051Z" fill="#263238"/>
<path d="M64.6796 86.6733C64.7002 86.6457 64.5538 86.5284 64.3387 86.5353C64.1236 86.5422 63.9863 86.6664 64.0069 86.6917C64.0275 86.717 64.1648 86.6641 64.3433 86.6618C64.5218 86.6595 64.6613 86.7101 64.6796 86.6733Z" fill="#263238"/>
<path d="M63.2519 84.67C63.2885 84.67 63.3068 84.4975 63.4006 84.3181C63.4944 84.1387 63.6134 84.0168 63.5928 83.9869C63.5722 83.957 63.3937 84.0467 63.2885 84.2606C63.1832 84.4745 63.2198 84.6746 63.2519 84.67Z" fill="#263238"/>
<path d="M62.5243 84.164C62.538 84.164 62.6135 84.049 62.6661 83.8259C62.6976 83.6949 62.7122 83.5604 62.7096 83.4257C62.7085 83.3487 62.7024 83.2719 62.6913 83.1957C62.6863 83.1488 62.6739 83.103 62.6547 83.06C62.6409 83.0284 62.6169 83.0024 62.5866 82.9861C62.5563 82.9699 62.5215 82.9643 62.4877 82.9703C62.4576 82.9762 62.4294 82.9894 62.4055 83.0086C62.3816 83.0278 62.3627 83.0526 62.3504 83.0807C62.3319 83.124 62.3196 83.1697 62.3138 83.2164C62.2771 83.4313 62.2952 83.6521 62.3664 83.8581C62.4419 84.0766 62.5426 84.1824 62.554 84.1732C62.5655 84.164 62.5014 84.0421 62.4488 83.8328C62.4204 83.7099 62.4074 83.584 62.4099 83.4579C62.4116 83.3808 62.4192 83.3039 62.4327 83.2279C62.4442 83.1497 62.4694 83.0876 62.5105 83.083C62.5517 83.0784 62.5288 83.083 62.5449 83.106C62.557 83.1387 62.5655 83.1726 62.57 83.2072C62.5831 83.2833 62.5915 83.3601 62.5952 83.4372C62.6021 83.5639 62.5967 83.691 62.5792 83.8167C62.5531 83.9311 62.5347 84.0471 62.5243 84.164Z" fill="#263238"/>
<path d="M62.5883 84.1433C62.5883 84.1433 62.5105 84.0168 62.3023 83.9133C62.1802 83.8532 62.0485 83.8151 61.9133 83.8006C61.8373 83.7922 61.7606 83.7922 61.6845 83.8006C61.6323 83.8 61.5807 83.8128 61.5347 83.8378C61.4886 83.8627 61.4497 83.899 61.4214 83.9432C61.4096 83.9737 61.4066 84.0069 61.4127 84.039C61.4188 84.0711 61.4337 84.1009 61.4557 84.1249C61.4883 84.1589 61.5252 84.1883 61.5656 84.2123C61.6364 84.2568 61.7135 84.2901 61.7944 84.3112C61.9281 84.3445 62.0679 84.3445 62.2016 84.3112C62.4305 84.2537 62.5311 84.1341 62.522 84.1272C62.4118 84.1658 62.2995 84.198 62.1856 84.2238C62.0646 84.2412 61.9412 84.2318 61.8241 84.1962C61.7561 84.1746 61.6915 84.1436 61.6319 84.1042C61.5655 84.0628 61.5198 84.0122 61.5381 83.9892C61.5578 83.9661 61.5825 83.9477 61.6102 83.9354C61.6379 83.923 61.668 83.9171 61.6983 83.9179C61.7744 83.9105 61.851 83.9105 61.9271 83.9179C62.0514 83.9266 62.1739 83.9529 62.2909 83.9961C62.4648 84.0697 62.5769 84.1571 62.5883 84.1433Z" fill="#263238"/>
<path d="M57.868 89.5092L60.0966 94.2035L60.7945 98.4401C60.8063 98.5122 60.8328 98.581 60.8722 98.6423C60.9117 98.7036 60.9633 98.7561 61.0239 98.7965C61.0844 98.8368 61.1526 98.8642 61.2241 98.8769C61.2957 98.8896 61.3691 98.8873 61.4397 98.8702C61.522 98.8511 61.5985 98.8122 61.6626 98.757C61.7268 98.7017 61.7767 98.6316 61.8081 98.5528C62.2177 97.5339 63.7072 93.7734 63.5242 93.4399C63.3137 93.0535 61.4992 88.3316 61.4992 88.3316L57.868 89.5092Z" fill="#FF725E"/>
<path opacity="0.6" d="M61.4397 98.8587L63.38 93.1087L63.4715 93.3088C63.5492 93.4824 63.563 93.678 63.5104 93.8608C63.3686 94.3507 62.9498 95.7008 61.8218 98.5344C61.7899 98.6161 61.7382 98.6885 61.6715 98.7451C61.6048 98.8017 61.5252 98.8407 61.4397 98.8587Z" fill="white"/>
<g opacity="0.6">
<path d="M61.728 92.0162C61.689 92.085 61.6767 92.1659 61.6937 92.2432C61.7106 92.3205 61.7554 92.3888 61.8195 92.4348C61.8869 92.4767 61.9676 92.4909 62.0451 92.4746C62.1226 92.4584 62.1909 92.4128 62.236 92.3474C62.2762 92.2739 62.2881 92.188 62.2696 92.1062C62.251 92.0244 62.2032 91.9523 62.1353 91.9035C62.0608 91.8672 61.9751 91.8615 61.8964 91.8877C61.8178 91.9139 61.7525 91.9699 61.7143 92.0438" fill="white"/>
</g>
<path d="M61.5907 96.2988C61.4176 96.1868 61.2176 96.1238 61.0118 96.1165C60.806 96.1092 60.6021 96.1579 60.4215 96.2574C60.4215 96.2574 60.4558 96.1838 60.5588 96.1194C60.6966 96.036 60.8557 95.9952 61.0164 96.0021C61.1761 96.007 61.331 96.0581 61.4626 96.1493C61.5633 96.2229 61.5999 96.2896 61.5907 96.2988Z" fill="#263238"/>
<path d="M61.5495 97.0854C61.3807 97.0699 61.211 97.0653 61.0416 97.0716C60.8764 97.1112 60.7137 97.1603 60.5542 97.2188C60.5291 97.2004 60.7121 96.9888 61.0256 96.9566C61.1168 96.9343 61.212 96.9344 61.3032 96.9568C61.3944 96.9792 61.4789 97.0233 61.5495 97.0854Z" fill="#263238"/>
<path d="M61.8516 95.2017C61.593 95.1564 61.3314 95.131 61.069 95.1258C60.8076 95.1553 60.5489 95.206 60.2957 95.2776C60.5206 95.1167 60.7868 95.0241 61.0626 95.0106C61.3383 94.9972 61.6121 95.0635 61.8516 95.2017Z" fill="#263238"/>
<path d="M61.2933 93.7182C61.2933 93.7527 60.9844 93.7596 60.6389 93.9022C60.2934 94.0448 60.0623 94.2449 60.0394 94.2196C60.1703 94.0165 60.3678 93.866 60.5977 93.7941C60.8134 93.687 61.0598 93.6601 61.2933 93.7182Z" fill="#263238"/>
<path d="M60.6732 92.3221C60.4376 92.3491 60.2067 92.4079 59.9868 92.4969C59.7827 92.6167 59.5964 92.7646 59.4331 92.9362C59.4216 92.9362 59.4445 92.8465 59.5269 92.7361C59.6345 92.5901 59.7759 92.4725 59.9387 92.3934C60.0999 92.3125 60.278 92.2714 60.4581 92.2738C60.5954 92.2784 60.6755 92.3106 60.6732 92.3221Z" fill="#263238"/>
<path d="M59.8769 92.2301C59.8373 92.177 59.8078 92.117 59.79 92.053C59.7336 91.8812 59.711 91.7 59.7236 91.5194C59.721 91.3865 59.762 91.2563 59.8403 91.1491C59.8686 91.1179 59.9054 91.0958 59.9461 91.0856C59.9868 91.0754 60.0296 91.0775 60.0691 91.0916C60.1462 91.1295 60.2071 91.194 60.2408 91.2733C60.3014 91.4377 60.3031 91.6182 60.2455 91.7837C60.1878 91.9491 60.0744 92.0892 59.925 92.1795C59.7757 92.2659 59.6044 92.3058 59.4325 92.2944C59.2607 92.2829 59.096 92.2206 58.9594 92.1151C58.9247 92.0877 58.8964 92.0528 58.8766 92.013C58.8568 91.9733 58.846 91.9296 58.845 91.8851C58.8473 91.8412 58.8634 91.799 58.8909 91.7647C58.9185 91.7305 58.956 91.7058 58.9983 91.6942C59.1263 91.6683 59.2587 91.6762 59.3827 91.7172C59.5578 91.7633 59.723 91.8412 59.8701 91.9472C59.973 92.0185 60.0188 92.0714 60.0142 92.0783C59.8131 91.9531 59.5939 91.86 59.3644 91.8023C59.2551 91.7698 59.1393 91.7659 59.0281 91.7908C59.0048 91.7967 58.984 91.8099 58.9688 91.8286C58.9535 91.8472 58.9446 91.8703 58.9434 91.8943C58.9475 91.9225 58.957 91.9497 58.9716 91.9741C58.9861 91.9986 59.0053 92.02 59.0281 92.0369C59.1484 92.1248 59.2913 92.1761 59.4397 92.1847C59.5882 92.1933 59.736 92.1587 59.8655 92.0852C59.9952 92.0094 60.0948 91.8907 60.1473 91.7494C60.1999 91.6081 60.2022 91.4529 60.1538 91.3101C60.1332 91.2536 60.0924 91.2069 60.0394 91.179C60.0176 91.169 59.9931 91.1663 59.9697 91.1712C59.9462 91.1762 59.9249 91.1886 59.909 91.2066C59.8419 91.2971 59.805 91.4066 59.8037 91.5194C59.7864 91.7588 59.8111 91.9994 59.8769 92.2301Z" fill="#263238"/>
<path d="M65.3775 80.8037L59.266 76.6637L61.2887 56.702L55.4998 53.3049L50.2075 52.0721C50.2075 52.0721 47.9972 56.6951 47.0042 59.6621C44.9129 65.9572 43.4462 68.2135 43.7826 72.7721C43.8878 74.2165 49.1916 77.8321 52.5413 79.8354C52.5789 80.2363 52.6385 80.6348 52.7198 81.0291C53.8639 86.2317 57.3601 93.1501 57.3601 93.1501L62.6684 90.6684L60.9569 84.7689L62.7416 85.8154L65.3775 80.8037ZM52.2416 67.9237L52.9555 64.7244C52.8045 66.7599 52.6672 68.8828 52.5688 70.9183C52.2237 69.9631 52.1115 68.9385 52.2416 67.9306V67.9237Z" fill="#263238"/>
<path d="M57.3692 93.1501C57.3529 93.1231 57.3391 93.0946 57.328 93.065L57.2159 92.8143L56.8063 91.8414C56.454 90.9927 55.9483 89.7714 55.342 88.2419C54.7356 86.7124 54.0172 84.9 53.2827 82.853C53.1019 82.3401 52.9257 81.8134 52.7587 81.2683C52.6855 80.9923 52.5917 80.7209 52.5436 80.4288C52.5299 80.3575 52.5139 80.2839 52.5024 80.2126L52.4773 79.9941L52.4292 79.5571C52.3652 78.9683 52.3141 78.3688 52.2759 77.7585C52.2576 77.4549 52.2416 77.1467 52.2279 76.8385C52.2141 76.5303 52.205 76.2152 52.2279 75.9001C52.3194 73.3931 52.5276 71.0149 52.7015 68.8506C52.8754 66.6863 53.0424 64.7405 53.1797 63.1006C53.317 61.4607 53.4085 60.1405 53.4543 59.2228C53.484 58.7628 53.5001 58.4086 53.5092 58.1694L53.5252 57.8934C53.5212 57.8629 53.5212 57.8319 53.5252 57.8014C53.5278 57.832 53.5278 57.8628 53.5252 57.8934C53.5252 57.9624 53.5252 58.0521 53.5252 58.1694C53.5252 58.4109 53.5138 58.7674 53.4932 59.2251C53.4543 60.1451 53.3742 61.4699 53.2529 63.1075C53.1317 64.7451 52.9692 66.6932 52.7953 68.8575C52.6214 71.0218 52.4224 73.4 52.3377 75.9001C52.3194 76.2129 52.3377 76.5211 52.3377 76.8316C52.3377 77.1421 52.3652 77.4457 52.3858 77.7516C52.4224 78.3649 52.4719 78.9622 52.5345 79.5433L52.5825 79.9826L52.6077 80.1988C52.6191 80.2701 52.6352 80.3391 52.6489 80.4104C52.6946 80.691 52.7862 80.9647 52.8594 81.2384C53.0218 81.7789 53.198 82.3056 53.3765 82.8185C54.095 84.8632 54.8065 86.6825 55.4015 88.212C55.9964 89.7415 56.4929 90.972 56.8338 91.823C57.0008 92.2462 57.1335 92.5751 57.2251 92.8051C57.2662 92.9132 57.3006 92.9983 57.3234 93.0604C57.3463 93.1225 57.3692 93.1501 57.3692 93.1501Z" fill="#455A64"/>
<path d="M53.2827 57.1252C53.2827 57.1252 53.2301 57.093 53.1454 57.0125C53.0361 56.8888 52.9487 56.7473 52.8868 56.5939C52.7057 56.0866 52.6174 55.5505 52.626 55.0115C52.619 54.4738 52.6442 53.9362 52.7015 53.4015C52.7122 53.1807 52.7429 52.9613 52.793 52.746C52.8118 52.9664 52.8118 53.188 52.793 53.4084C52.7724 53.8155 52.7404 54.379 52.7496 55C52.7459 55.5278 52.8231 56.053 52.9784 56.5571C53.0322 56.705 53.1053 56.8449 53.1957 56.9734C53.2507 57.0677 53.2895 57.1206 53.2827 57.1252Z" fill="#455A64"/>
<path d="M50.9992 52.3757C51.0532 52.556 51.0688 52.7456 51.0449 52.9323C51.0145 53.3903 50.8629 53.8317 50.6059 54.211C50.3488 54.5903 49.9956 54.8937 49.5829 55.0897C49.4182 55.18 49.2366 55.2348 49.0497 55.2507C49.0497 55.2323 49.2488 55.1771 49.5462 55.0207C49.9334 54.8137 50.2647 54.5153 50.5118 54.1511C50.7589 53.7869 50.9144 53.3679 50.9649 52.93C51.0038 52.5896 50.9786 52.3757 50.9992 52.3757Z" fill="#455A64"/>
<path d="M60.4947 63.9815C60.4947 63.9815 60.4947 64.0022 60.4947 64.0413C60.4947 64.0804 60.4947 64.1471 60.481 64.2184C60.4627 64.384 60.4398 64.614 60.4124 64.9084C60.346 65.5087 60.2545 66.362 60.1401 67.4108C59.9113 69.5337 59.5726 72.4478 59.2111 75.6701C59.0822 77.187 59.1833 78.7147 59.5109 80.2011C59.6542 80.8486 59.8384 81.4862 60.0623 82.1101C60.2682 82.6989 60.4581 83.2486 60.6343 83.7523C60.9798 84.7505 61.259 85.5624 61.4557 86.1328C61.5472 86.4088 61.6205 86.625 61.6845 86.7814L61.7394 86.9516C61.7471 86.9699 61.7517 86.9893 61.7532 87.0091C61.7532 87.0091 61.7532 86.993 61.728 86.9539C61.7028 86.9148 61.6891 86.8573 61.6639 86.7883C61.6045 86.6342 61.5267 86.4203 61.4351 86.1466L60.5794 83.7799C60.4009 83.2785 60.2041 82.7288 59.9936 82.1423C59.7644 81.515 59.5756 80.8735 59.4285 80.2218C59.0915 78.7259 58.9858 77.1868 59.115 75.6586C59.472 72.4271 59.8289 69.5153 60.0783 67.4016C60.2087 66.3528 60.3071 65.4995 60.3872 64.9015C60.4238 64.6117 60.4535 64.3863 60.4764 64.2115C60.4764 64.1402 60.4947 64.0827 60.5016 64.0367C60.4967 64.0187 60.4944 64.0001 60.4947 63.9815Z" fill="#455A64"/>
<path d="M50.2075 52.0376L51.1456 49.6295L53.285 52.8357L50.4317 52.1204" fill="#FFBE9D"/>
<path d="M72.5895 44.7995L70.0521 39.0794C69.7477 38.1594 69.178 38.0168 68.7021 37.4832L62.3435 33.8791C57.7078 31.9701 55.1841 38.3687 55.1841 38.3687L50.9717 48.0287C46.018 49.6778 49.5256 53.5027 49.5256 53.5027C49.5256 53.5027 48.178 51.1475 49.5051 50.2988C50.8916 49.4087 52.4292 51.7524 53.9073 53.9788C55.6531 56.6054 61.323 58.312 61.323 58.312C61.9866 57.6082 61.8012 55.1495 62.3206 53.8293C62.4854 53.413 66.4117 44.2705 66.4117 44.2705L67.9333 47.9758C67.9333 47.9758 69.8827 45.6758 70.83 45.3124C71.401 45.0916 71.9896 44.92 72.5895 44.7995Z" fill="#FF725E"/>
<path d="M61.3207 48.8659C61.2625 48.919 61.1979 48.9646 61.1285 49.0016C60.9437 49.1094 60.7501 49.201 60.5496 49.2753C59.8832 49.5277 59.1632 49.6029 58.4593 49.4937C57.7555 49.3845 57.0916 49.0946 56.5318 48.652C56.3627 48.5208 56.2057 48.3745 56.0627 48.215C56.006 48.1608 55.9581 48.0979 55.9208 48.0287C55.9369 48.0126 56.1497 48.2725 56.5798 48.5876C57.1389 49.0022 57.7896 49.2744 58.4761 49.381C59.1627 49.4875 59.8648 49.4252 60.5222 49.1994C61.0301 49.0292 61.3207 48.8475 61.3207 48.8659Z" fill="#263238"/>
<path d="M50.7955 39.7901L54.7196 40.1627L60.9981 33.4927L57.3051 33.3639L50.7315 34.0171C51.0773 35.9239 51.099 37.876 50.7955 39.7901Z" fill="#FF725E"/>
<path d="M56.2343 36.2803C56.2248 36.3233 56.2086 36.3644 56.1863 36.4022L56.0284 36.7426C55.8865 37.0508 55.6875 37.4763 55.4472 37.9915C54.9598 39.0495 54.3032 40.5215 53.6167 42.1545C52.9303 43.7875 52.2759 45.2664 51.7863 46.3267C51.546 46.858 51.347 47.2835 51.2051 47.5779L51.0381 47.9137C51.0206 47.9546 50.9983 47.9932 50.9717 48.0287C50.9834 47.9861 50.9987 47.9445 51.0175 47.9045L51.1639 47.5595L51.7131 46.2945C52.1707 45.2112 52.809 43.7369 53.5046 42.1085C54.2002 40.4801 54.8775 39.0081 55.374 37.957C55.628 37.4326 55.8316 37.0117 55.9895 36.7219C56.0627 36.5885 56.1199 36.4781 56.1657 36.3907C56.1846 36.3516 56.2076 36.3146 56.2343 36.2803Z" fill="#263238"/>
<path d="M68.2124 38.2192C68.2239 38.2399 67.9836 38.3664 67.6473 38.6516C67.4544 38.8178 67.2774 39.0019 67.1187 39.2013C66.9254 39.4477 66.7583 39.7136 66.6199 39.9948C66.4871 40.2781 66.3829 40.5739 66.3088 40.878C66.2511 41.128 66.2174 41.3829 66.2081 41.6393C66.1921 42.0763 66.2424 42.3477 66.2195 42.35C66.1954 42.2905 66.18 42.2277 66.1738 42.1637C66.1566 42.0881 66.1458 42.0112 66.1417 41.9337C66.13 41.833 66.1246 41.7316 66.1257 41.6301C66.124 41.3673 66.1508 41.1051 66.2058 40.8481C66.2744 40.5309 66.378 40.2223 66.5147 39.9281C66.6579 39.6401 66.8321 39.3686 67.0341 39.1185C67.2013 38.9175 67.3892 38.7348 67.5947 38.5734C67.6721 38.5095 67.7539 38.4511 67.8395 38.3986C67.9011 38.3543 67.9661 38.3151 68.034 38.2813C68.0898 38.2513 68.1501 38.2303 68.2124 38.2192Z" fill="#263238"/>
<path d="M69.3084 29.0583L65.6269 35.9767C65.3368 36.5209 64.8524 36.9344 64.2713 37.1341C63.6901 37.3338 63.0553 37.3048 62.4945 37.0531C62.1923 36.9157 61.9213 36.7175 61.6983 36.4708C61.4752 36.224 61.3048 35.9339 61.1976 35.6184C61.0904 35.3029 61.0487 34.9686 61.075 34.6363C61.1012 34.3039 61.195 33.9805 61.3505 33.6859L61.9843 32.4853C61.9843 32.4853 60.3826 31.4434 61.1331 29.7046C61.8012 28.1544 64.2541 23.7752 64.7735 22.8506L67.8761 24.2467C68.2891 24.4633 68.6547 24.7608 68.9514 25.1218C69.248 25.4828 69.4697 25.8999 69.6032 26.3485C69.7367 26.797 69.7795 27.268 69.7288 27.7334C69.6782 28.1989 69.5353 28.6494 69.3084 29.0583Z" fill="#FFBE9D"/>
<path d="M61.9843 32.46C62.7721 32.8319 63.6522 32.96 64.5126 32.828C64.5126 32.828 63.4281 33.8331 61.7806 32.9062L61.9843 32.46Z" fill="#EB996E"/>
<path d="M63.1672 26.9285C63.1379 26.9927 63.1347 27.0659 63.1582 27.1324C63.1817 27.199 63.2301 27.2537 63.2931 27.285C63.3232 27.3014 63.3563 27.3117 63.3904 27.3151C63.4245 27.3186 63.459 27.3152 63.4917 27.3051C63.5245 27.295 63.555 27.2785 63.5814 27.2565C63.6078 27.2345 63.6295 27.2075 63.6454 27.1769C63.6747 27.1127 63.678 27.0396 63.6545 26.973C63.631 26.9064 63.5826 26.8517 63.5196 26.8204C63.4894 26.804 63.4563 26.7938 63.4222 26.7903C63.3881 26.7869 63.3537 26.7903 63.3209 26.8003C63.2881 26.8104 63.2576 26.8269 63.2312 26.8489C63.2049 26.8709 63.1831 26.898 63.1672 26.9285Z" fill="#263238"/>
<path d="M63.1809 26.71C63.197 26.756 63.4441 26.71 63.7095 26.8204C63.9749 26.9308 64.1076 27.1585 64.1511 27.1401C64.1946 27.1217 64.1648 27.0596 64.1099 26.9607C64.0304 26.8297 63.9131 26.7262 63.7736 26.664C63.6358 26.6019 63.4821 26.585 63.3342 26.6157C63.2267 26.641 63.1718 26.6801 63.1809 26.71Z" fill="#263238"/>
<path d="M65.6406 28.1521C65.6107 28.2163 65.6072 28.2896 65.6307 28.3564C65.6543 28.4231 65.7031 28.4778 65.7665 28.5086C65.7968 28.525 65.83 28.5351 65.8642 28.5384C65.8984 28.5417 65.9329 28.5381 65.9657 28.5278C65.9985 28.5175 66.029 28.5008 66.0553 28.4785C66.0815 28.4563 66.1032 28.429 66.1188 28.3982C66.1474 28.3343 66.1503 28.2617 66.1269 28.1957C66.1034 28.1296 66.0554 28.0753 65.993 28.044C65.9629 28.0273 65.9298 28.0168 65.8956 28.0132C65.8615 28.0096 65.8269 28.0129 65.794 28.023C65.7611 28.0331 65.7306 28.0497 65.7043 28.0719C65.6779 28.0941 65.6563 28.1214 65.6406 28.1521Z" fill="#263238"/>
<path d="M65.7573 27.9267C65.7733 27.9727 66.0205 27.9267 66.2859 28.0371C66.5513 28.1475 66.684 28.3775 66.7275 28.3591C66.771 28.3407 66.7435 28.2786 66.6863 28.1774C66.6066 28.0472 66.4892 27.9445 66.3499 27.883C66.2125 27.8198 66.0584 27.8029 65.9106 27.8347C65.8031 27.86 65.7482 27.906 65.7573 27.9267Z" fill="#263238"/>
<path d="M63.92 29.4654C63.8 29.3602 63.6679 29.2699 63.5264 29.1963C63.4624 29.1572 63.4029 29.1158 63.412 29.0652C63.4212 29.0146 63.4807 28.9479 63.547 28.8835L63.9772 28.4557C64.357 28.101 64.7082 27.7164 65.0274 27.3057C64.6179 27.6272 64.2353 27.9818 63.8834 28.366L63.4601 28.8007C63.3813 28.8636 63.327 28.9523 63.3068 29.0514C63.3064 29.0797 63.3122 29.1077 63.3236 29.1335C63.3351 29.1593 63.352 29.1823 63.3731 29.2009C63.4062 29.2274 63.4423 29.2498 63.4807 29.2676C63.6174 29.3536 63.7652 29.4201 63.92 29.4654Z" fill="#263238"/>
<path d="M64.6156 29.999C64.5744 29.9783 64.4463 30.2658 64.1099 30.3601C63.7736 30.4544 63.4807 30.2865 63.4601 30.3256C63.4395 30.3647 63.5036 30.4107 63.6317 30.4728C63.7984 30.5512 63.9873 30.5675 64.1648 30.5188C64.3359 30.4732 64.4823 30.3616 64.5721 30.2083C64.6362 30.0933 64.6362 30.0082 64.6156 29.999Z" fill="#263238"/>
<path d="M66.1532 26.8549C66.1532 26.94 66.4254 27.0228 66.7183 27.1999C67.0112 27.377 67.2263 27.5748 67.2949 27.5288C67.327 27.5058 67.3132 27.4184 67.2446 27.2988C67.147 27.1529 67.018 27.031 66.867 26.9422C66.7161 26.8534 66.5471 26.7999 66.3728 26.7859C66.2401 26.7859 66.1554 26.8158 66.1532 26.8549Z" fill="#263238"/>
<path d="M63.6202 25.9901C63.6408 26.0729 63.8491 26.0913 64.0779 26.1856C64.3067 26.2799 64.4646 26.4156 64.5355 26.365C64.6064 26.3144 64.5675 26.2684 64.5103 26.1764C64.435 26.057 64.3235 25.9651 64.1923 25.9142C64.0625 25.8579 63.9184 25.8442 63.7804 25.8751C63.666 25.8935 63.6088 25.9441 63.6202 25.9901Z" fill="#263238"/>
<path d="M68.1507 30.0956C68.1873 30.0956 69.4892 30.275 68.9263 31.4411C68.3635 32.6072 67.3247 31.7976 67.3247 31.7631C67.3247 31.7286 68.1507 30.0956 68.1507 30.0956Z" fill="#FFBE9D"/>
<path d="M67.8967 31.494C67.8967 31.494 67.9104 31.517 67.9356 31.5515C67.9745 31.5952 68.0285 31.6224 68.0866 31.6274C68.186 31.6173 68.2809 31.5807 68.3614 31.5212C68.4419 31.4617 68.505 31.3816 68.5442 31.2893C68.5953 31.191 68.6242 31.0827 68.6289 30.9719C68.6353 30.9301 68.6316 30.8873 68.6181 30.8473C68.6045 30.8072 68.5815 30.7711 68.5511 30.7419C68.5305 30.7247 68.5046 30.7153 68.4779 30.7153C68.4511 30.7153 68.4252 30.7247 68.4046 30.7419C68.3749 30.7672 68.3703 30.7925 68.3635 30.7925C68.3566 30.7925 68.3474 30.7603 68.3795 30.7166C68.4005 30.6909 68.4295 30.673 68.4618 30.666C68.5055 30.6578 68.5506 30.6668 68.5877 30.6913C68.6304 30.7241 68.6641 30.7673 68.6857 30.8167C68.7073 30.8662 68.7161 30.9204 68.7112 30.9742C68.7116 31.0991 68.6818 31.2222 68.6243 31.333C68.5798 31.4396 68.5051 31.5307 68.4095 31.5949C68.3139 31.6591 68.2016 31.6936 68.0866 31.6941C68.0511 31.687 68.0175 31.6725 67.9879 31.6515C67.9584 31.6305 67.9335 31.6035 67.915 31.5722C67.8852 31.5239 67.8921 31.494 67.8967 31.494Z" fill="#EB996E"/>
<path d="M68.8234 30.3601C68.7156 30.3054 68.5954 30.2802 68.4749 30.2871C68.3544 30.2939 68.2378 30.3326 68.1369 30.3992C67.9859 30.5326 67.883 30.7166 67.7319 30.8592C67.6623 30.9334 67.5702 30.9823 67.47 30.9981C67.3697 31.0139 67.2671 30.9958 67.1782 30.9466C67.1262 30.8999 67.0874 30.8402 67.0657 30.7736C67.044 30.7069 67.0402 30.6357 67.0547 30.5671C67.0853 30.4295 67.142 30.2991 67.2217 30.183C67.5352 29.6632 67.8944 29.1664 68.1644 28.6213C68.4582 28.0829 68.5864 27.4689 68.5328 26.8572C68.5018 26.553 68.3898 26.2628 68.2086 26.0171C68.0274 25.7714 67.7837 25.5794 67.5031 25.4611C67.1256 25.3277 66.7046 25.3668 66.3179 25.2564C66.089 25.1873 65.8787 25.067 65.7027 24.9045C65.5268 24.742 65.3898 24.5414 65.302 24.318C65.2565 24.2279 65.2061 24.1404 65.151 24.0558C65.1647 24.0282 65.302 23.7936 65.437 23.7476C66.4575 23.4003 67.8372 23.7982 68.6815 24.4675C69.1125 24.8042 69.4652 25.2313 69.7149 25.7191C69.9647 26.207 70.1055 26.7437 70.1276 27.2919C70.139 28.3729 69.4617 29.5643 68.8325 30.3693" fill="#263238"/>
<path d="M68.8348 30.2336C69.1574 29.6816 69.6791 29.2837 70.0772 28.7869C70.4754 28.2901 70.7637 27.5886 70.4662 27.0182C70.3701 26.8227 70.2145 26.6594 70.1344 26.457C70.071 26.2469 70.0326 26.0299 70.02 25.8107C69.9684 25.4757 69.8419 25.1568 69.6501 24.878C69.4583 24.5992 69.2061 24.3676 68.9126 24.2007C68.5053 23.9707 68.0363 23.8787 67.6221 23.6602C66.97 23.3152 66.4918 22.6758 65.7917 22.4021C65.6814 22.348 65.5609 22.318 65.4383 22.3141C65.3157 22.3101 65.1936 22.3323 65.0801 22.3791C65.0257 22.4057 64.9776 22.4434 64.9388 22.4899C64.8999 22.5364 64.8713 22.5906 64.8547 22.649C64.838 22.7073 64.8338 22.7686 64.8423 22.8287C64.8508 22.8888 64.8718 22.9464 64.9039 22.9978C64.8903 22.9448 64.8654 22.8955 64.8309 22.8532C64.7964 22.8109 64.7531 22.7767 64.704 22.7531C64.655 22.7294 64.6014 22.7168 64.5469 22.7162C64.4925 22.7156 64.4386 22.7269 64.3891 22.7494C64.2917 22.8028 64.2122 22.8838 64.1605 22.9824C64.1088 23.0811 64.0872 23.1928 64.0985 23.3037C64.1253 23.5251 64.2115 23.735 64.3479 23.9109C64.7722 24.5155 65.3967 24.9484 66.1097 25.1322L67.6908 25.008L68.9858 25.9717L69.9422 27.5058L68.2056 29.7736L68.8348 30.2336Z" fill="#263238"/>
<path d="M58.9526 21.1831C58.8883 20.181 58.5575 19.2146 57.9947 18.3849C57.4319 17.5552 56.6577 16.8926 55.7531 16.4665C54.8485 16.0403 53.8467 15.8661 52.8523 15.9622C51.8578 16.0582 50.9073 16.4209 50.1 17.0124C49.2927 17.6039 48.6582 18.4025 48.2628 19.3248C47.8675 20.247 47.7258 21.259 47.8525 22.2551C47.9792 23.2512 48.3697 24.1949 48.9832 24.9874C49.5967 25.78 50.4107 26.3924 51.3401 26.7606C51.3836 27.423 51.4316 28.1728 51.4316 28.1728L56.3098 27.8554C56.3098 27.8554 56.2892 27.0619 56.2526 26.3535C57.132 25.8245 57.8493 25.062 58.3257 24.1498C58.802 23.2377 59.0189 22.2112 58.9526 21.1831Z" fill="#FF725E"/>
<path d="M54.5434 27.9474C54.5434 27.9474 54.5434 27.9221 54.5434 27.8784C54.5434 27.8347 54.5434 27.7611 54.5434 27.6737C54.5434 27.4966 54.5686 27.2321 54.596 26.894C54.6235 26.5559 54.6624 26.1396 54.7379 25.6635C54.8214 25.1211 54.957 24.588 55.1429 24.0719C55.2523 23.7715 55.3878 23.4813 55.5479 23.2048C55.6351 23.0538 55.7586 22.9273 55.9071 22.8368C55.9875 22.7918 56.0775 22.7668 56.1694 22.764C56.2614 22.7612 56.3527 22.7806 56.4357 22.8207C56.5235 22.8632 56.5915 22.9382 56.6256 23.03C56.6632 23.1229 56.6632 23.2269 56.6256 23.3198C56.5439 23.4986 56.3998 23.641 56.2206 23.72C56.0317 23.7943 55.83 23.8303 55.6272 23.8257C55.4244 23.8211 55.2246 23.7761 55.0392 23.6933C54.8538 23.6105 54.6866 23.4916 54.5473 23.3434C54.408 23.1952 54.2994 23.0206 54.2277 22.8299C54.143 22.6266 54.1169 22.4035 54.1522 22.1859C54.1713 22.0702 54.23 21.9649 54.3181 21.8881C54.4063 21.8112 54.5183 21.7677 54.6349 21.765C54.6953 21.767 54.7542 21.7845 54.8059 21.8159C54.8575 21.8473 54.9003 21.8916 54.9301 21.9444C54.9916 22.0464 55.0151 22.167 54.9965 22.2848C54.9426 22.5117 54.8184 22.7155 54.6418 22.8667C54.4736 23.0293 54.2731 23.1543 54.0535 23.2336C53.8338 23.3129 53.6 23.3446 53.3673 23.3267C53.1342 23.3047 52.9098 23.2262 52.7134 23.098C52.5169 22.9699 52.3543 22.7958 52.2393 22.5907C52.1802 22.4897 52.1426 22.3774 52.1288 22.261C52.1151 22.1447 52.1254 22.0267 52.1592 21.9145C52.1758 21.857 52.2047 21.8038 52.244 21.7587C52.2833 21.7136 52.3319 21.6778 52.3864 21.6536C52.441 21.6295 52.5001 21.6177 52.5597 21.6191C52.6193 21.6204 52.6779 21.6349 52.7313 21.6615C52.8366 21.7105 52.9244 21.7908 52.9829 21.8915C53.0376 21.9897 53.0733 22.0974 53.0882 22.2089C53.1176 22.4243 53.1028 22.6435 53.0447 22.8529C52.9372 23.2635 52.6778 23.6172 52.3194 23.8419C51.9774 24.0528 51.5718 24.1343 51.1754 24.0719C50.9827 24.0538 50.8012 23.973 50.6582 23.8419C50.5883 23.7734 50.5437 23.683 50.5316 23.5857C50.5196 23.4883 50.5408 23.3896 50.5919 23.306C50.6512 23.229 50.7384 23.1786 50.8344 23.1657C50.9259 23.154 51.0188 23.1658 51.1044 23.2002C51.2623 23.2777 51.3902 23.4055 51.4682 23.5636C51.6284 23.858 51.7588 24.1455 51.8915 24.4192C52.4086 25.5186 52.7839 26.4271 53.0356 27.0573C53.1614 27.3724 53.2644 27.6185 53.3193 27.7841C53.349 27.8669 53.3719 27.9313 53.3902 27.975C53.3986 27.9967 53.4055 28.019 53.4108 28.0417L53.3834 27.9773L53.3056 27.791L53.0104 27.0665C52.7496 26.4409 52.3674 25.5347 51.8458 24.4399C51.7131 24.1685 51.5781 23.8764 51.4202 23.5889C51.3468 23.4423 51.2279 23.3236 51.0815 23.2508C51.0076 23.2158 50.9245 23.2054 50.8442 23.2211C50.764 23.2368 50.6908 23.2778 50.6354 23.3382C50.5939 23.4112 50.5776 23.496 50.5892 23.5792C50.6008 23.6625 50.6396 23.7395 50.6994 23.7982C50.8329 23.9205 51.0024 23.9956 51.1822 24.0121C51.5646 24.0693 51.9548 23.9878 52.2828 23.7821C52.6229 23.5631 52.868 23.223 52.9692 22.8299C53.0251 22.6287 53.0392 22.4181 53.0104 22.2112C53.0037 22.1084 52.9709 22.009 52.9153 21.9224C52.8596 21.8359 52.7829 21.7651 52.6924 21.7167C52.6468 21.6956 52.5972 21.6847 52.5471 21.6847C52.4969 21.6847 52.4473 21.6956 52.4018 21.7167C52.3554 21.7389 52.3145 21.771 52.2817 21.8107C52.2489 21.8504 52.2251 21.8968 52.2119 21.9467C52.1811 22.0499 52.1719 22.1583 52.1849 22.2652C52.1979 22.372 52.2328 22.4751 52.2874 22.5677C52.3987 22.7607 52.5545 22.9241 52.7416 23.0442C52.9287 23.1642 53.1417 23.2375 53.3628 23.2577C53.5857 23.2743 53.8096 23.2433 54.0198 23.1668C54.2299 23.0903 54.4216 22.97 54.5823 22.8138C54.746 22.6736 54.862 22.4854 54.9141 22.2756C54.9301 22.173 54.9099 22.068 54.8569 21.9789C54.8324 21.9361 54.7975 21.9001 54.7555 21.8744C54.7135 21.8487 54.6658 21.834 54.6166 21.8317C54.5156 21.8324 54.4185 21.8709 54.3444 21.9398C54.2698 22.0083 54.22 22.0997 54.2025 22.1997C54.1687 22.4048 54.1933 22.6153 54.2734 22.8069C54.3418 22.9914 54.4462 23.1603 54.5804 23.3037C54.7146 23.4472 54.8759 23.5622 55.055 23.6421C55.234 23.722 55.4271 23.7652 55.6229 23.7691C55.8187 23.773 56.0134 23.7375 56.1954 23.6648C56.3609 23.5922 56.4943 23.4613 56.5707 23.2968C56.6034 23.2193 56.6055 23.1322 56.5766 23.0531C56.5477 22.9741 56.49 22.9091 56.4151 22.8713C56.3401 22.8349 56.2575 22.8172 56.1743 22.8196C56.0911 22.822 56.0096 22.8445 55.9369 22.8851C55.7983 22.9707 55.6828 23.0892 55.6005 23.2301C55.4418 23.503 55.307 23.7893 55.1978 24.0857C55.0098 24.5969 54.8719 25.1254 54.786 25.6635C54.7059 26.1396 54.6624 26.5536 54.6304 26.8917C54.5983 27.2298 54.5823 27.4897 54.5663 27.6714C54.5663 27.7565 54.5526 27.8255 54.5503 27.8738C54.548 27.9221 54.5434 27.9474 54.5434 27.9474Z" fill="#263238"/>
<path d="M55.9918 28.7869L51.8046 29.0606C51.7209 29.0657 51.6387 29.0374 51.5757 28.9818C51.5127 28.9262 51.4741 28.8479 51.4682 28.7639C51.4632 28.6801 51.4915 28.5977 51.5468 28.5347C51.6021 28.4718 51.68 28.4335 51.7634 28.4281L55.9529 28.1567C55.9941 28.1539 56.0354 28.1593 56.0745 28.1726C56.1136 28.1859 56.1497 28.2068 56.1808 28.2342C56.2118 28.2615 56.2371 28.2948 56.2554 28.332C56.2736 28.3692 56.2843 28.4097 56.2869 28.4511C56.292 28.535 56.2637 28.6174 56.2084 28.6803C56.1531 28.7433 56.0752 28.7816 55.9918 28.7869Z" fill="#263238"/>
<path d="M56.0101 29.0629L51.8206 29.3366C51.7375 29.3421 51.6599 29.3806 51.605 29.4436C51.5501 29.5065 51.5223 29.5889 51.5277 29.6724C51.5332 29.756 51.5714 29.834 51.6341 29.8892C51.6967 29.9444 51.7786 29.9723 51.8618 29.9668L52.3194 29.9369L53.0058 31.0662C53.0449 31.1293 53.1002 31.1805 53.1658 31.2145C53.2315 31.2485 53.3051 31.264 53.3788 31.2594L54.8752 31.1628C54.9492 31.1571 55.0204 31.1314 55.0812 31.0885C55.1419 31.0456 55.1901 30.9871 55.2207 30.919L55.7378 29.7161L56.0513 29.6954C56.1314 29.6857 56.2049 29.6455 56.2565 29.583C56.308 29.5206 56.3338 29.4406 56.3286 29.3596C56.3233 29.2786 56.2873 29.2027 56.2281 29.1475C56.1689 29.0923 56.0908 29.0621 56.0101 29.0629Z" fill="#263238"/>
<g opacity="0.2">
<path d="M49.5806 18.2115C49.8891 17.8815 50.2503 17.6056 50.6491 17.395C50.9101 17.2515 51.1907 17.1476 51.482 17.0868C51.6925 17.0523 51.8137 17.0638 51.8275 17.1075C51.8572 17.2087 51.4454 17.3858 50.9122 17.7975C50.2001 18.3184 49.652 19.0343 49.3336 19.8598C49.0151 20.6852 48.9396 21.5853 49.1161 22.4527C49.2374 23.1312 49.4227 23.5406 49.3449 23.6027C49.3037 23.628 49.2076 23.5544 49.0772 23.3865C48.898 23.1438 48.7575 22.8746 48.6608 22.5884C48.5125 22.1624 48.4352 21.7148 48.4319 21.2636C48.4213 20.702 48.5184 20.1437 48.718 19.6191" fill="white"/>
</g>
<g opacity="0.2">
<path d="M53.1866 17.2639C52.8342 17.2823 52.5162 17.2064 52.4681 17.0201C52.4475 16.9281 52.507 16.8246 52.6283 16.7395C52.7853 16.6436 52.9632 16.5876 53.1466 16.5764C53.33 16.5652 53.5134 16.599 53.6808 16.6751C53.8135 16.7464 53.8822 16.843 53.873 16.9373" fill="white"/>
</g>
<path d="M55.1429 31.0225C55.0431 31.0049 54.9446 30.9811 54.8477 30.9512C54.6125 30.9013 54.3711 30.8865 54.1316 30.9075C53.8955 30.9331 53.6643 30.9928 53.4451 31.0846C53.2758 31.1582 53.1751 31.218 53.1706 31.2088C53.2445 31.138 53.3305 31.0811 53.4245 31.0409C53.6471 30.9319 53.8874 30.8641 54.1339 30.8408C54.3805 30.8169 54.6295 30.8387 54.8683 30.9052C54.9658 30.9284 55.0586 30.9681 55.1429 31.0225Z" fill="#455A64"/>
<path d="M55.7492 29.7299C55.7492 29.7483 54.9942 29.8127 54.0583 29.8748C53.1225 29.9369 52.3675 29.9691 52.3652 29.9484C52.3629 29.9277 53.1202 29.8656 54.0538 29.8058C54.9873 29.746 55.747 29.7115 55.7492 29.7299Z" fill="#455A64"/>
<path d="M55.5181 30.2474C55.3837 30.281 55.2467 30.3033 55.1086 30.3141C54.8546 30.3486 54.5022 30.3854 54.111 30.4176C53.7197 30.4498 53.3673 30.4659 53.1111 30.4728C52.9733 30.4854 52.8347 30.4854 52.6969 30.4728C52.8326 30.4451 52.9704 30.4297 53.1088 30.4268L54.1064 30.3509L55.104 30.2681C55.2412 30.2495 55.3798 30.2425 55.5181 30.2474Z" fill="#455A64"/>
</svg>
