<svg width="32" height="32" viewBox="0 0 32 32" fill="none" xmlns="http://www.w3.org/2000/svg">
<path d="M27.9931 9.20055C27.9709 8.97648 27.8923 8.76169 27.7645 8.5763C27.6367 8.39091 27.464 8.24098 27.2624 8.14055L16.5958 2.80721C16.4105 2.71452 16.2062 2.66626 15.9991 2.66626C15.792 2.66626 15.5877 2.71452 15.4024 2.80721L4.73576 8.14055C4.53479 8.24156 4.36258 8.39167 4.23508 8.57697C4.10759 8.76226 4.02894 8.97675 4.00643 9.20055C3.99176 9.34322 2.72509 23.5565 15.4584 29.2192C15.6286 29.296 15.8131 29.3357 15.9998 29.3357C16.1864 29.3357 16.371 29.296 16.5411 29.2192C29.2744 23.5565 28.0078 9.34455 27.9931 9.20055V9.20055ZM15.9998 26.5299C6.97443 22.1672 6.54776 12.8565 6.62109 10.1805L15.9998 5.49121L25.3718 10.1779C25.4211 12.8299 24.9344 22.2019 15.9998 26.5299Z" fill="#181818"/>
<path d="M14.6668 16.7819L11.6095 13.7245L9.72412 15.6099L14.6668 20.5525L22.2761 12.9432L20.3908 11.0579L14.6668 16.7819Z" fill="#181818"/>
</svg>
