<svg width="113" height="74" viewBox="0 0 113 74" fill="none" xmlns="http://www.w3.org/2000/svg">
<path d="M72.4621 10.1188H42.972V63.1168H72.4621V10.1188Z" fill="#FF5F00"/>
<path d="M44.8381 36.6229C44.8326 31.5181 45.9888 26.479 48.219 21.8871C50.4493 17.2952 53.6951 13.271 57.7108 10.1192C52.7387 6.21173 46.7677 3.7819 40.48 3.10743C34.1924 2.43296 27.8418 3.54105 22.1541 6.30507C16.4665 9.06909 11.6712 13.3775 8.31628 18.7379C4.96139 24.0984 3.18228 30.2945 3.18228 36.6182C3.18228 42.942 4.96139 49.1381 8.31628 54.4985C11.6712 59.859 16.4665 64.1674 22.1541 66.9314C27.8418 69.6954 34.1924 70.8035 40.48 70.129C46.7677 69.4546 52.7387 67.0247 57.7108 63.1173C53.6964 59.9664 50.4513 55.9437 48.2211 51.3536C45.9909 46.7635 44.834 41.7262 44.8381 36.6229Z" fill="#EB001B"/>
<path d="M112.248 36.6227C112.248 42.9469 110.469 49.1434 107.113 54.504C103.758 59.8646 98.9616 64.173 93.2733 66.9366C87.5849 69.7002 81.2337 70.8076 74.9457 70.1322C68.6577 69.4567 62.6865 67.0257 57.7149 63.117C61.7277 59.9634 64.9719 55.9396 67.2026 51.3492C69.4334 46.7588 70.5925 41.7217 70.5925 36.618C70.5925 31.5143 69.4334 26.4772 67.2026 21.8868C64.9719 17.2964 61.7277 13.2726 57.7149 10.119C62.6865 6.21026 68.6577 3.77924 74.9457 3.1038C81.2337 2.42836 87.5849 3.53575 93.2733 6.29937C98.9616 9.063 103.758 13.3714 107.113 18.732C110.469 24.0926 112.248 30.2891 112.248 36.6133V36.6227Z" fill="#F79E1B"/>
<path d="M109.029 57.4998V56.4138H109.469V56.1891H108.355V56.4138H108.833V57.4998H109.029ZM111.192 57.4998V56.1891H110.855L110.462 57.1253L110.068 56.1891H109.769V57.4998H110.012V56.5168L110.377 57.3687H110.63L110.995 56.5168V57.5091L111.192 57.4998Z" fill="#F79E1B"/>
</svg>
