<svg width="229" height="67" viewBox="0 0 229 67" fill="none" xmlns="http://www.w3.org/2000/svg">
<g clip-path="url(#clip0_113_5226)">
<path d="M63.0828 64.6761C62.786 63.8581 62.2479 63.3004 61.8583 62.5754C60.912 61.3298 59.7988 60.2516 58.6856 59.1733C58.2959 59.0432 58.129 58.6714 57.7579 58.5226C57.5167 58.2066 57.1271 58.0393 56.8116 57.7976C56.1808 57.3143 55.4943 56.9053 54.7893 56.4963C53.4534 55.6411 51.8021 55.102 50.1694 54.5443C48.4068 54.1167 46.5514 53.8007 44.6218 53.5404C42.7108 53.2616 40.7998 53.0013 39.3526 52.2391C38.5176 51.9974 37.9054 51.5326 37.1818 51.1608C36.5138 50.7147 35.7902 50.3428 35.2336 49.7851C34.5471 49.3761 34.1204 48.6883 33.5823 48.1306C33.3968 47.7588 33.0814 47.5357 32.933 47.1267C32.7474 47.0523 32.6918 46.8293 32.5804 46.6991C32.4506 46.5504 32.4506 46.2529 32.2279 46.1972C32.1166 46.9594 32.1537 47.8703 32.2279 48.6511C32.3207 48.9857 32.3578 49.3947 32.4506 49.7294C32.5062 50.0268 32.7845 50.5102 32.6732 50.7332C26.8844 50.4358 22.6542 48.5953 18.9805 46.1786C17.1623 44.9702 15.6038 43.5016 14.1566 41.9214C13.5257 41.0476 12.8392 40.211 12.2826 39.2443C11.7075 38.2962 11.2251 37.218 10.7056 36.2141C9.85209 34.039 9.05428 31.8082 8.75742 29.0754C8.36779 26.5285 8.46056 23.2751 9.03572 20.9142C9.23981 19.6128 9.66655 18.516 10.0376 17.382C10.2788 16.8614 10.5386 16.3409 10.7612 15.8018C11.0766 15.3556 11.2436 14.7421 11.6332 14.3517C12.6908 12.3625 14.2679 10.8753 15.8821 9.44385C17.6261 8.1611 19.6114 7.12004 22.0048 6.48796C24.3055 5.96743 27.4411 5.87448 29.9273 6.4136C34.9739 7.45467 38.7774 9.7227 41.9686 12.6228C45.197 15.4672 47.6832 19.0737 49.3901 23.461C51.1528 27.6253 51.765 34.1134 50.188 38.8354C49.5386 38.4635 48.8892 38.1103 48.2398 37.7571C47.4606 37.534 46.6999 37.2738 45.7907 37.1808C44.696 37.1622 43.6199 37.1808 42.9149 37.534C44.3435 37.3853 45.4939 37.7757 46.3844 38.1103C46.9039 38.3148 47.2008 38.445 47.609 38.6866C48.4068 39.1514 49.1118 39.579 49.7056 40.211C51.394 41.6983 52.5999 43.6689 53.1751 46.2715C53.1751 46.3459 53.2679 46.3273 53.2493 46.1972C53.3235 46.1786 53.3606 46.1228 53.3978 46.0485C53.4905 45.9369 53.6018 45.8254 53.6946 45.6952C53.8802 45.4721 54.0657 45.2491 54.1956 44.9702C54.5852 44.5054 54.9006 43.9849 55.1975 43.4458C55.884 42.4419 56.4035 41.2893 56.9972 40.1925C58.0176 37.8501 58.8526 35.3218 59.3721 32.4588C60.4111 26.1009 59.168 20.0776 56.9972 15.6345C54.7707 11.1542 51.6537 7.56621 47.6275 4.87059C43.5643 2.19357 38.8145 0.22298 32.2836 0.0370757C32.2465 -0.0930575 32.1908 0.0556661 32.0609 0.0370757C28.6099 -0.074467 25.8269 0.408885 23.0624 1.11532C21.7822 1.5429 20.4463 1.91471 19.3145 2.49102C18.0157 2.9186 16.9767 3.62503 15.7893 4.14557C15.3626 4.55456 14.7132 4.75905 14.2679 5.14945C13.6927 5.42831 13.266 5.87448 12.6908 6.15334C11.7631 6.97132 10.7798 7.69634 9.87064 8.53291C8.98006 9.35089 8.2008 10.2804 7.34733 11.1356C7.21745 11.433 6.99481 11.6375 6.77216 11.8606C6.62373 12.1395 6.4382 12.3811 6.197 12.5856C6.10423 12.9203 5.80737 13.0504 5.69605 13.385C5.45485 13.5709 5.39919 13.9427 5.12088 14.1101C4.87968 14.7049 4.45295 15.1325 4.17464 15.6902C3.84067 16.2294 3.58092 16.8243 3.24695 17.3448C2.72745 18.5532 2.17083 19.7244 1.7441 21.0257C1.29881 22.2899 0.927731 23.6284 0.667978 25.0784C0.389672 26.4355 0.129919 28.2016 0.167027 29.6331C-0.0185107 30.1536 0.129919 31.1203 0.167027 31.7338C0.167027 31.8453 0.0928119 31.8825 0.0928119 31.9569C0.0928119 32.6447 0.278349 33.4813 0.315457 33.9089C0.463887 35.4891 0.742193 36.9577 1.18748 38.2405C1.46579 39.6719 2.05951 40.7874 2.48625 42.0701C3.13563 43.1483 3.58092 44.4311 4.36018 45.3978C4.93534 46.5318 5.75171 47.4241 6.53097 48.3537C7.36588 49.246 8.2008 50.1569 9.20271 50.882C11.0395 52.4808 13.1918 53.7635 15.5481 54.8603C19.9453 56.9982 26.5134 58.3925 32.4135 58.0393C33.9163 57.8348 35.4377 57.6489 36.8107 57.3143C38.0724 56.8495 39.5381 56.5706 41.0595 56.3847C44.5291 56.1617 47.5348 56.4777 50.2065 57.2585C52.9154 57.9835 55.2531 59.0804 57.2755 60.5118C58.3516 61.1439 59.2422 61.9619 60.1513 62.7427C61.079 63.5421 61.8212 64.5274 62.6746 65.4197C62.786 65.7543 63.0086 65.996 63.1756 66.2935C63.3982 66.5351 63.2869 67.0928 63.825 67.0185C64.1589 66.6839 63.7693 66.2005 63.7508 65.7915C63.4168 65.4383 63.3426 64.9735 63.0828 64.6761Z" fill="#FCB316"/>
<path d="M49.6128 44.8959C49.5386 44.8959 49.5201 44.9517 49.4644 44.9703C49.3345 45.2491 49.3902 45.6953 49.4644 45.9742C49.8541 46.7736 49.9839 47.8146 50.8374 48.1493C51.2456 48.0191 51.2085 47.4242 51.1899 46.8479C51.0044 46.1415 50.7446 45.5094 50.3179 45.0446C50.021 44.9331 49.8169 44.7472 49.6128 44.8959ZM44.5662 46.9223C44.5662 46.8851 44.5106 46.8479 44.492 46.9223C43.787 46.8293 43.5458 47.2197 43.1933 47.4986C42.581 49.116 43.5643 50.6961 45.2898 50.6776C45.9763 50.5102 46.403 50.0641 46.5144 49.3019C46.4216 47.9448 45.8464 47.071 44.5662 46.9223Z" fill="#FCB316"/>
<path d="M98.8856 47.1622C99.2886 48.8649 100.148 50.0811 101.115 51.2162C102.083 52.3514 103.211 53.2973 104.581 54C105.871 54.8108 107.268 55.4865 108.879 55.9459C109.659 56.2162 110.411 56.5405 111.378 56.6486C112.05 57.027 112.856 57.2162 112.909 58.1892C112.882 59.3513 112.103 59.7838 111.109 60C110.115 59.7838 108.879 59.8108 108.047 59.4324C105.951 59.1892 104.259 58.5135 102.486 57.8919C99.1006 56.5676 96.2528 54.6487 93.8887 52.2973C93.4051 51.4865 92.7335 50.8378 92.2231 50.0541C91.7126 49.2703 91.3634 48.3243 90.8261 47.5405C86.6888 47 83.868 45.1081 81.3964 42.9189C79.1129 40.2973 77.286 37.1622 76.5338 33C75.6473 29 75.9159 24 76.9637 20.1351C79.2472 12.6486 84.0292 7.67568 93.0559 7C95.5544 7.08108 97.7304 7.37838 99.7185 8.13514C101.733 8.86487 103.641 10.2162 105.145 11.6216C105.28 11.7297 105.333 11.7568 105.414 11.8919C105.736 12.3514 106.515 13 106.945 13.5676C107.026 13.6757 106.999 13.8649 107.08 14C107.241 14.2432 107.482 14.3514 107.644 14.5676C107.724 14.7027 107.697 14.8649 107.778 14.973C107.885 15.1351 108.02 15.3784 108.181 15.6757C108.235 15.7838 108.423 15.8649 108.45 15.9459C108.691 16.4054 108.799 16.973 109.014 17.4865C109.229 18.027 109.524 18.4865 109.712 19.027C110.25 20.6216 110.599 22.5135 110.814 24.4595C111.351 30.0811 110.25 35.1081 108.181 38.8378C107.214 40.7838 105.871 42.3784 104.286 43.7297C102.835 45.2703 100.847 46.1892 98.8856 47.1622ZM92.2231 11.973C91.0141 12.0541 90.2888 12.6216 89.2948 12.9459C88.65 13.5405 87.8441 14 87.3605 14.7568C86.5545 15.2162 86.3396 16.2432 85.6948 16.8378C85.1575 18.1892 84.6471 19.7027 84.2979 21.4595C83.9755 23.1892 83.7605 25.1351 83.7337 27.0541C83.7068 31.8649 84.7277 36.6487 86.6351 39.4865C87.7635 40.8649 89.1336 42 90.7992 42.8378C91.7664 42.9189 92.5186 43.2432 93.5663 43.2703C94.1574 43.0541 95.1245 43.2703 95.5006 42.8378C96.3603 42.8919 96.5484 42.3243 97.3006 42.2703C97.7036 41.8649 98.1334 41.5405 98.6976 41.2973C99.208 40.7297 99.6916 40.1622 100.229 39.6216C100.498 39.2162 100.659 38.6487 101.062 38.3514C103.48 33.7027 103.748 25.1892 102.163 19.7838C101.572 17.8108 100.739 16.2162 99.799 14.8919C98.7782 13.8378 97.5692 12.9459 96.1991 12.2432C95.0976 12 94.0499 11.7027 92.5992 11.8378C92.5186 11.8378 92.438 11.8649 92.4649 11.973C92.4111 11.973 92.3305 11.973 92.2231 11.973ZM121.533 8.05405C123.709 8.13514 126.261 7.86487 128.196 8.18919C128.625 8.86487 128.464 9.67568 128.464 10.4324C128.625 20.6757 128.464 31.6757 128.464 42.1351C128.464 42.973 128.491 43.8378 128.464 44.6486C128.437 45.3513 128.625 46.1081 128.196 46.7568C127.228 47 125.831 46.8919 124.596 46.8919C123.279 46.8919 121.99 47.0811 121.13 46.6216C120.888 34.2432 120.888 20.8919 121.13 8.48649C121.184 8.27027 121.318 8.13514 121.533 8.05405ZM138.189 8.05405H144.718C145.309 8.86487 145.497 10.0811 145.685 11.2703C147.646 18.7838 149.58 26.3243 151.38 34.027C151.81 34.0811 151.676 33.5676 151.81 33.3243C151.998 33.1351 151.891 32.6757 152.079 32.4865C152.159 31.8649 152.535 31.5405 152.509 30.8108C152.992 29.8649 153.153 28.5676 153.61 27.5946C154.174 25.3243 154.926 23.2162 155.571 21.027C156.189 18.7568 157.022 16.7027 157.505 14.3243C158.419 12.4054 158.634 9.78378 159.735 8.05405H162.502C163.496 9.94595 163.872 12.4595 164.732 14.4865C165.296 16.7568 166.075 18.8108 166.666 21.0541C168.037 25.4054 169.46 29.7027 170.696 34.1892C171.26 33.3514 171.26 31.9459 171.663 30.973C171.905 29.8649 172.12 28.7297 172.496 27.7568C173.571 23.3243 174.592 18.8649 175.827 14.6216C176.284 12.4054 176.741 10.1351 177.493 8.18919C179.105 7.94595 181.577 7.94595 183.189 8.18919C183.323 9.83784 182.571 11.6216 182.087 13.0811C181.818 14.8649 181.174 16.2432 180.824 17.973C179.83 21.1351 179.078 24.4865 178.057 27.6216C177.278 30.973 176.23 34.0541 175.425 37.4054C174.887 38.9459 174.511 40.6487 174.028 42.2973C173.49 43.8108 173.302 45.6757 172.496 46.9189H168.601C167.607 45.1622 167.257 42.7838 166.371 40.9189C164.437 34.7568 162.287 28.8378 160.407 22.6216C159.762 23.2973 159.762 24.6757 159.305 25.5405C159.01 26.5946 158.714 27.6487 158.338 28.6216C157.801 30.7568 156.995 32.5676 156.538 34.7568C155.759 36.6757 155.195 38.8108 154.604 40.9189C153.798 42.7568 153.503 45.1081 152.509 46.7838C151.488 47.1081 149.876 46.8378 148.613 46.9189C147.646 45.8108 147.538 43.8108 146.947 42.2973C146.491 40.7297 146.168 39 145.577 37.5405C144.825 34.1351 143.697 31.1351 142.945 27.7568C141.951 24.6216 141.091 21.3514 140.177 18.1081C139.667 16.5676 139.291 14.9189 138.78 13.3514C138.539 11.6757 137.41 10.1622 137.813 8.32432C137.867 8.18919 138.028 8.10811 138.189 8.05405ZM193.021 8.05405C195.197 8.13514 197.723 7.86487 199.684 8.18919C200.167 9.64865 199.952 11.2162 199.952 12.7838V42.1081C199.952 43.7027 200.14 45.2432 199.684 46.7297C198.179 46.8919 195.976 46.973 194.123 46.8649C193.585 46.8378 192.941 47 192.591 46.5946C192.108 45.1351 192.323 43.5946 192.323 41.973V12.9459C192.323 11.1892 192.162 9.48649 192.591 8.32432C192.699 8.18919 192.86 8.10811 193.021 8.05405Z" fill="#0269B3"/>
</g>
<defs>
<clipPath id="clip0_113_5226">
<rect width="229" height="67" fill="white"/>
</clipPath>
</defs>
</svg>
