<svg width="189" height="53" viewBox="0 0 189 53" fill="none" xmlns="http://www.w3.org/2000/svg">
<g clip-path="url(#clip0_113_5213)">
<path d="M133.071 24.8535V52.3375H149.819V36.8778H166.675C175.478 36.8778 182.993 31.8856 185.892 24.8535H133.071Z" fill="#006848"/>
<path d="M132.318 0C132.371 1.39567 132.586 2.79134 132.908 4.07966C132.962 4.34805 133.069 4.67013 133.123 4.93853C133.176 5.04589 133.176 5.15325 133.23 5.31429C136.236 14.8156 145.093 21.6866 155.561 21.6866H186.48C186.695 20.613 186.802 19.5394 186.802 18.4121C186.802 13.0442 184.494 8.21299 180.79 4.83117C177.516 1.82511 173.168 0 168.337 0H132.318V0Z" fill="url(#paint0_linear_113_5213)"/>
<path d="M103.386 5.52901L91.6838 30.9195H90.5028V0H73.8621V52.3377H87.9799C91.6838 52.3377 95.0656 50.1905 96.6223 46.8087L108.324 21.4182H109.505V52.3377H126.146V0H112.028C108.324 0 104.943 2.14719 103.386 5.52901Z" fill="#006848"/>
<path d="M25.8186 6.871L32.797 30.9195H33.9779L40.9026 6.871C42.0836 2.79134 45.7875 0 50.0282 0H66.6689V52.3377H50.0282V21.4182H48.8472L39.2922 52.3377H27.429L17.874 21.4182H16.6931V52.3377H0.0523682V0H16.6931C20.9338 0 24.6377 2.79134 25.8186 6.871Z" fill="#006848"/>
</g>
<defs>
<linearGradient id="paint0_linear_113_5213" x1="132.308" y1="10.8499" x2="186.786" y2="10.8499" gradientUnits="userSpaceOnUse">
<stop stop-color="#02AFFF"/>
<stop offset="1" stop-color="#1F5BDE"/>
</linearGradient>
<clipPath id="clip0_113_5213">
<rect width="188.416" height="52.3377" fill="white" transform="translate(0.0523682)"/>
</clipPath>
</defs>
</svg>
