<svg width="162" height="53" viewBox="0 0 162 53" fill="none" xmlns="http://www.w3.org/2000/svg">
<mask id="mask0_113_5204" style="mask-type:alpha" maskUnits="userSpaceOnUse" x="0" y="0" width="162" height="53">
<path d="M0 0.319092H161.92V52.6568H0" fill="white"/>
</mask>
<g mask="url(#mask0_113_5204)">
<path fill-rule="evenodd" clip-rule="evenodd" d="M57.0521 51.9658L65.2562 1.23706H78.3722L70.1681 51.9658H57.0521Z" fill="#005CA3"/>
<path fill-rule="evenodd" clip-rule="evenodd" d="M117.714 2.47736C115.124 1.45252 111.022 0.318848 105.949 0.318848C92.9953 0.318848 83.8731 7.22651 83.8192 17.102C83.7115 24.3879 90.3497 28.4355 95.3155 30.8645C100.389 33.3463 102.116 34.965 102.116 37.1784C102.063 40.5784 98.015 42.1442 94.2368 42.1442C89.0016 42.1442 86.1943 41.3349 81.9301 39.4447L80.2027 38.6354L78.3685 50.0228C81.4452 51.4259 87.1114 52.6673 92.9953 52.7212C106.758 52.7212 115.717 45.9213 115.825 35.3982C115.879 29.622 112.371 25.1972 104.815 21.5817C100.227 19.2616 97.4212 17.6958 97.4212 15.3217C97.4751 13.1632 99.7952 10.9508 104.977 10.9508C109.241 10.8431 112.371 11.8679 114.746 12.8938L115.934 13.4326L117.714 2.47736Z" fill="#005CA3"/>
</g>
<path fill-rule="evenodd" clip-rule="evenodd" d="M151.338 1.23706H141.191C138.06 1.23706 135.685 2.15413 134.336 5.44524L114.852 51.9658H128.614C128.614 51.9658 130.882 45.7048 131.368 44.3556H148.207C148.585 46.1369 149.773 51.9658 149.773 51.9658H161.917L151.338 1.23706ZM135.145 33.9941C136.225 31.0801 140.381 19.8005 140.381 19.8005C140.327 19.9093 141.461 16.8327 142.109 14.9436L143.026 19.3145C143.026 19.3145 145.509 31.4584 146.049 33.9941H135.145Z" fill="#005CA3"/>
<path fill-rule="evenodd" clip-rule="evenodd" d="M46.0934 1.23706L33.248 35.8293L31.8449 28.8128C29.4698 20.7186 22.0222 11.9229 13.7104 7.55095L25.476 51.912H39.3474L59.9648 1.23706H46.0934Z" fill="#005CA3"/>
<path fill-rule="evenodd" clip-rule="evenodd" d="M21.32 1.23706H0.215528L0 2.2619C16.462 6.47115 27.3645 16.6171 31.8442 28.8128L27.2567 5.49912C26.5013 2.2619 24.1801 1.34375 21.32 1.23706Z" fill="#FFAD30"/>
</svg>
