<svg width="28" height="28" viewBox="0 0 28 28" fill="none" xmlns="http://www.w3.org/2000/svg">
<path d="M22.2195 8.63448C22.6605 8.19348 22.9032 7.60781 22.9032 6.98481C22.9032 6.36181 22.6605 5.77615 22.2195 5.33515L20.3692 3.48481C19.9282 3.04381 19.3425 2.80115 18.7195 2.80115C18.0965 2.80115 17.5108 3.04381 17.071 3.48365L4.66699 15.8491V21H9.81549L22.2195 8.63448ZM18.7195 5.13448L20.571 6.98365L18.716 8.83165L16.8657 6.98248L18.7195 5.13448ZM7.00033 18.6666V16.8175L15.2137 8.62981L17.064 10.4801L8.85183 18.6666H7.00033ZM4.66699 23.3333H23.3337V25.6666H4.66699V23.3333Z" fill="#2F3538"/>
</svg>
