<svg width="22" height="22" viewBox="0 0 22 22" fill="none" xmlns="http://www.w3.org/2000/svg">
<path d="M4.58333 20.1666H17.4167C17.9029 20.1666 18.3692 19.9735 18.713 19.6297C19.0568 19.2859 19.25 18.8195 19.25 18.3333V10.0833C19.2507 9.96267 19.2276 9.84308 19.182 9.73139C19.1363 9.61971 19.0691 9.51813 18.9842 9.43247L11.6508 2.09914C11.4791 1.92841 11.2468 1.83258 11.0046 1.83258C10.7624 1.83258 10.5301 1.92841 10.3583 2.09914L3.025 9.43247C2.93839 9.51737 2.86948 9.61861 2.82227 9.73033C2.77507 9.84205 2.7505 9.96203 2.75 10.0833V18.3333C2.75 18.8195 2.94315 19.2859 3.28697 19.6297C3.63079 19.9735 4.0971 20.1666 4.58333 20.1666ZM9.16667 18.3333V13.75H12.8333V18.3333H9.16667ZM4.58333 10.4591L11 4.04247L17.4167 10.4591V18.3333H14.6667V13.75C14.6667 13.2637 14.4735 12.7974 14.1297 12.4536C13.7859 12.1098 13.3196 11.9166 12.8333 11.9166H9.16667C8.68044 11.9166 8.21412 12.1098 7.87031 12.4536C7.52649 12.7974 7.33333 13.2637 7.33333 13.75V18.3333H4.58333V10.4591Z" fill="#2F3538"/>
</svg>
