<svg width="22" height="22" viewBox="0 0 22 22" fill="none" xmlns="http://www.w3.org/2000/svg">
<path d="M19.8973 4.85006L17.1482 2.1019C17.0633 2.01661 16.9623 1.94897 16.851 1.90287C16.7398 1.85678 16.6206 1.83314 16.5002 1.83331H5.50017C5.37977 1.83314 5.26052 1.85678 5.1493 1.90287C5.03807 1.94897 4.93706 2.01661 4.85208 2.1019L2.103 4.85006C2.01735 4.93502 1.94943 5.03613 1.90316 5.14754C1.8569 5.25895 1.83322 5.37843 1.8335 5.49906V17.4166C1.8335 18.4277 2.65575 19.25 3.66683 19.25H18.3335C19.3446 19.25 20.1668 18.4277 20.1668 17.4166V5.49906C20.1671 5.37843 20.1434 5.25895 20.0972 5.14754C20.0509 5.03613 19.983 4.93502 19.8973 4.85006ZM5.87967 3.66665H16.1207L17.0364 4.5824H4.96392L5.87967 3.66665ZM3.66683 17.4166V6.41573H18.3335L18.3353 17.4166H3.66683Z" fill="#2F3538"/>
<path d="M13.7498 11H8.24984V9.16669H6.4165V12.8334H15.5832V9.16669H13.7498V11Z" fill="#2F3538"/>
</svg>
