<svg width="36" height="36" viewBox="0 0 36 36" fill="none" xmlns="http://www.w3.org/2000/svg">
<path d="M6 3V30H4.5V33H10.5V30H9V22.5H28.5C28.8978 22.5 29.2794 22.342 29.5607 22.0607C29.842 21.7794 30 21.3978 30 21V6C30 5.60218 29.842 5.22064 29.5607 4.93934C29.2794 4.65804 28.8978 4.5 28.5 4.5H9V3H6ZM12 7.5V10.5H15V7.5H18V10.5H21V7.5H24V10.5H27V13.5H24V16.5H27V19.5H24V16.5H21V19.5H18V16.5H15V19.5H12V16.5H9V13.5H12V10.5H9V7.5H12Z" fill="#181818"/>
<path d="M12 13.5H15V16.5H12V13.5ZM18 13.5H21V16.5H18V13.5ZM15 10.5H18V13.5H15V10.5ZM21 10.5H24V13.5H21V10.5Z" fill="#181818"/>
</svg>
