<svg width="60" height="60" viewBox="0 0 60 60" fill="none" xmlns="http://www.w3.org/2000/svg">
<path d="M44.2675 30.7325C44.0355 30.5002 43.76 30.3158 43.4567 30.19C43.1534 30.0643 42.8283 29.9995 42.5 29.9995C42.1716 29.9995 41.8465 30.0643 41.5433 30.19C41.24 30.3158 40.9645 30.5002 40.7325 30.7325L36.7475 34.7175C34.9 34.1675 31.4525 32.9175 29.2675 30.7325C27.0825 28.5475 25.8325 25.1 25.2825 23.2525L29.2675 19.2675C29.4998 19.0355 29.6842 18.76 29.81 18.4567C29.9357 18.1535 30.0005 17.8283 30.0005 17.5C30.0005 17.1717 29.9357 16.8466 29.81 16.5433C29.6842 16.24 29.4998 15.9645 29.2675 15.7325L19.2675 5.73251C19.0355 5.50015 18.76 5.31581 18.4567 5.19003C18.1534 5.06425 17.8283 4.99951 17.5 4.99951C17.1716 4.99951 16.8465 5.06425 16.5432 5.19003C16.24 5.31581 15.9645 5.50015 15.7325 5.73251L8.95248 12.5125C8.00248 13.4625 7.46748 14.7675 7.48748 16.1C7.54498 19.66 8.48748 32.025 18.2325 41.77C27.9775 51.515 40.3425 52.455 43.905 52.515H43.975C45.295 52.515 46.5425 51.995 47.4875 51.05L54.2675 44.27C54.4999 44.038 54.6842 43.7625 54.81 43.4592C54.9357 43.156 55.0005 42.8308 55.0005 42.5025C55.0005 42.1742 54.9357 41.8491 54.81 41.5458C54.6842 41.2425 54.4999 40.967 54.2675 40.735L44.2675 30.7325ZM43.95 47.5125C40.83 47.46 30.155 46.6225 21.7675 38.2325C13.3525 29.8175 12.5375 19.105 12.4875 16.0475L17.5 11.035L23.965 17.5L20.7325 20.7325C20.4386 21.0261 20.2226 21.3884 20.1039 21.7864C19.9851 22.1845 19.9675 22.6059 20.0525 23.0125C20.1125 23.3 21.58 30.1175 25.73 34.2675C29.88 38.4175 36.6975 39.885 36.985 39.945C37.3913 40.0324 37.8132 40.0162 38.2116 39.8978C38.61 39.7794 38.9723 39.5626 39.265 39.2675L42.5 36.035L48.965 42.5L43.95 47.5125Z" fill="#2F3538"/>
</svg>
